<svg width="24" height="24" viewBox="0 0 24 24" fill="none" xmlns="http://www.w3.org/2000/svg">
<path d="M9.72521 19.9686C10.1443 19.9686 10.4841 19.6288 10.4841 19.2097C10.4841 18.7906 10.1443 18.4508 9.72521 18.4508C9.30608 18.4508 8.96631 18.7906 8.96631 19.2097C8.96631 19.6288 9.30608 19.9686 9.72521 19.9686Z" stroke="black" stroke-width="2" stroke-linecap="round" stroke-linejoin="round"/>
<path d="M18.0719 19.9686C18.491 19.9686 18.8308 19.6288 18.8308 19.2097C18.8308 18.7906 18.491 18.4508 18.0719 18.4508C17.6528 18.4508 17.313 18.7906 17.313 19.2097C17.313 19.6288 17.6528 19.9686 18.0719 19.9686Z" stroke="black" stroke-width="2" stroke-linecap="round" stroke-linejoin="round"/>
<path d="M3.6521 4.03137H6.68773L8.7216 14.1931C8.79099 14.5425 8.98107 14.8564 9.25856 15.0798C9.53604 15.3031 9.88325 15.4218 10.2394 15.415H17.616C17.9721 15.4218 18.3194 15.3031 18.5968 15.0798C18.8743 14.8564 19.0644 14.5425 19.1338 14.1931L20.348 7.82591H7.44663" stroke="black" stroke-width="2" stroke-linecap="round" stroke-linejoin="round"/>
</svg>
