<svg width="24" height="24" viewBox="0 0 24 24" fill="none" xmlns="http://www.w3.org/2000/svg">
<path d="M12.2249 10.594L6.71592 16.104L4.84592 15.327L4.67892 15.496L7.05892 17.083L8.64692 19.463L8.81492 19.295L8.03892 17.425L13.5479 11.917L17.8759 18.169L18.0859 17.961L15.1989 10.265L19.5989 5.86701C19.765 5.6897 19.8557 5.45476 19.8517 5.21183C19.8478 4.96891 19.7495 4.73704 19.5777 4.56524C19.4059 4.39344 19.174 4.29518 18.9311 4.29122C18.6882 4.28726 18.4532 4.37791 18.2759 4.54401L13.8759 8.94301L6.18192 6.05701L5.97192 6.26601L12.2249 10.594ZM17.6149 21.077L13.2849 14.824L10.2449 17.864L11.0219 19.734L8.35592 22.399L5.71092 18.432L1.74292 15.786L4.40892 13.12L6.27792 13.896L9.31792 10.856L3.06492 6.52801L5.71092 3.88301L13.4059 6.76801L16.9529 3.22101C17.2123 2.95534 17.5219 2.74379 17.8636 2.59863C18.2054 2.45346 18.5726 2.37757 18.9439 2.37536C19.3152 2.37314 19.6832 2.44463 20.0267 2.5857C20.3702 2.72677 20.6822 2.93461 20.9448 3.19716C21.2073 3.45972 21.4152 3.77178 21.5562 4.11524C21.6973 4.45871 21.7688 4.82676 21.7666 5.19807C21.7644 5.56937 21.6885 5.93654 21.5433 6.2783C21.3981 6.62006 21.1866 6.92961 20.9209 7.18901L17.3739 10.736L20.2599 18.432L17.6139 21.077H17.6149Z" fill="black"/>
</svg>
