<svg width="24" height="24" viewBox="0 0 24 24" fill="none" xmlns="http://www.w3.org/2000/svg">
<path d="M13.6194 3.8584H4.04907C2.9445 3.8584 2.04907 4.75383 2.04907 5.8584V13.6194C2.04907 14.7239 2.9445 15.6194 4.04907 15.6194H13.6194C14.724 15.6194 15.6194 14.7239 15.6194 13.6194V5.8584C15.6194 4.75383 14.724 3.8584 13.6194 3.8584Z" stroke="black" stroke-width="2" stroke-linecap="round" stroke-linejoin="round"/>
<path d="M15.6184 10.3828C15.6184 9.27824 16.5138 8.38281 17.6184 8.38281H18.4087C18.9392 8.38281 19.4479 8.59353 19.8229 8.9686L21.3654 10.5111C21.7405 10.8862 21.9512 11.3949 21.9512 11.9253V13.6203C21.9512 14.7249 21.0558 15.6203 19.9512 15.6203H17.6184C16.5138 15.6203 15.6184 14.7249 15.6184 13.6203V10.3828Z" stroke="black" stroke-width="2" stroke-linecap="round" stroke-linejoin="round"/>
<path d="M6.12036 20.1416C7.36948 20.1416 8.38209 19.129 8.38209 17.8799C8.38209 16.6308 7.36948 15.6182 6.12036 15.6182C4.87125 15.6182 3.85864 16.6308 3.85864 17.8799C3.85864 19.129 4.87125 20.1416 6.12036 20.1416Z" stroke="black" stroke-width="2" stroke-linecap="round" stroke-linejoin="round"/>
<path d="M17.8801 20.1416C19.1292 20.1416 20.1419 19.129 20.1419 17.8799C20.1419 16.6308 19.1292 15.6182 17.8801 15.6182C16.631 15.6182 15.6184 16.6308 15.6184 17.8799C15.6184 19.129 16.631 20.1416 17.8801 20.1416Z" stroke="black" stroke-width="2" stroke-linecap="round" stroke-linejoin="round"/>
</svg>
