<svg width="368" height="250" viewBox="0 0 368 250" fill="none" xmlns="http://www.w3.org/2000/svg">
<g filter="url(#filter0_ddd_62_966)">
<g clip-path="url(#clip0_62_966)">
<rect x="24" y="8" width="320" height="202" rx="26" fill="url(#paint0_linear_62_966)"/>
<g opacity="0.1">
<path d="M237.228 187.153C237.228 215.843 213.862 239.101 185.039 239.101C156.216 239.101 132.85 215.843 132.85 187.153C132.85 172.027 139.345 158.41 149.711 148.916C159.005 140.403 171.412 135.205 185.039 135.205C213.862 135.205 237.228 158.463 237.228 187.153Z" fill="white"/>
<path d="M237.228 187.153C237.228 215.843 213.862 239.101 185.039 239.101H335.66C306.837 239.101 283.471 215.843 283.471 187.153C283.471 183.488 283.853 179.912 284.578 176.462C282.12 176.815 279.607 176.998 277.05 176.998C251.719 176.998 230.602 159.033 225.858 135.205H191.815H185.039C213.862 135.205 237.228 158.463 237.228 187.153Z" fill="white"/>
<path d="M225.858 135.205C225.204 131.921 224.861 128.525 224.861 125.05C224.861 120.486 225.453 116.059 226.563 111.841C222.202 119.629 209.147 135.205 191.815 135.205H225.858Z" fill="white"/>
<path fill-rule="evenodd" clip-rule="evenodd" d="M335.66 239.101C364.484 239.101 387.85 215.843 387.85 187.153C387.85 158.463 364.484 135.205 335.66 135.205C333.104 135.205 330.591 135.388 328.133 135.741C323.685 156.907 306.294 173.339 284.578 176.462C283.853 179.912 283.471 183.488 283.471 187.153C283.471 215.843 306.837 239.101 335.66 239.101Z" fill="white"/>
<path d="M328.133 135.741C323.685 156.907 306.294 173.339 284.578 176.462C289.026 155.296 306.417 138.864 328.133 135.741Z" fill="white"/>
<path d="M329.24 125.05C329.24 96.3595 305.874 73.1014 277.05 73.1014C252.813 73.1014 232.434 89.548 226.563 111.841C225.453 116.059 224.861 120.486 224.861 125.05C224.861 128.525 225.204 131.921 225.858 135.205C230.602 159.033 251.719 176.998 277.05 176.998C279.607 176.998 282.12 176.815 284.578 176.462C289.026 155.296 306.417 138.864 328.133 135.741C328.858 132.291 329.24 128.715 329.24 125.05Z" fill="white"/>
</g>
<path d="M53.0745 39.8726C53.7109 39.8726 54.2636 39.9396 54.7325 40.0736C55.2126 40.2076 55.581 40.3974 55.8378 40.643C56.1058 40.8775 56.2398 41.1622 56.2398 41.4971C56.2398 41.7204 56.1728 41.9326 56.0388 42.1335C55.9048 42.3233 55.7094 42.4182 55.4526 42.4182C55.274 42.4182 55.1233 42.3959 55.0005 42.3512C54.8888 42.2954 54.7883 42.2284 54.699 42.1503C54.6097 42.0721 54.5036 41.9995 54.3808 41.9326C54.2691 41.8656 54.0961 41.8153 53.8616 41.7818C53.6383 41.7372 53.4709 41.7148 53.3592 41.7148C52.7898 41.7148 52.3041 41.8377 51.9022 42.0833C51.5114 42.3289 51.2099 42.6639 50.9978 43.0881C50.7857 43.5012 50.6796 43.9813 50.6796 44.5284C50.6796 45.0643 50.7857 45.5444 50.9978 45.9687C51.2211 46.3818 51.5226 46.7112 51.9022 46.9568C52.2929 47.2024 52.7395 47.3253 53.242 47.3253C53.5211 47.3253 53.7611 47.3085 53.9621 47.275C54.1631 47.2415 54.3306 47.1913 54.4645 47.1243C54.6208 47.035 54.7604 46.9401 54.8832 46.8396C55.006 46.7391 55.1903 46.6888 55.4359 46.6888C55.7262 46.6888 55.9495 46.7837 56.1058 46.9736C56.2621 47.1522 56.3403 47.3755 56.3403 47.6435C56.3403 47.9226 56.1839 48.1794 55.8713 48.4138C55.5587 48.6371 55.1456 48.8214 54.632 48.9665C54.1296 49.1005 53.5825 49.1675 52.9908 49.1675C52.1087 49.1675 51.3439 48.9665 50.6963 48.5646C50.0488 48.1515 49.5464 47.5932 49.1891 46.8898C48.843 46.1864 48.6699 45.3993 48.6699 44.5284C48.6699 43.6129 48.8541 42.809 49.2226 42.1168C49.6022 41.4134 50.1214 40.8663 50.7801 40.4755C51.45 40.0736 52.2148 39.8726 53.0745 39.8726ZM59.9666 47.9784C59.9666 48.2687 59.8661 48.5143 59.6652 48.7153C59.4754 48.9051 59.2353 49 58.945 49C58.6659 49 58.4314 48.9051 58.2416 48.7153C58.0518 48.5143 57.9569 48.2687 57.9569 47.9784V37.6284C57.9569 37.3382 58.0518 37.0981 58.2416 36.9083C58.4426 36.7073 58.6882 36.6069 58.9785 36.6069C59.2688 36.6069 59.5033 36.7073 59.6819 36.9083C59.8717 37.0981 59.9666 37.3382 59.9666 37.6284V47.9784ZM70.8318 44.5284C70.8318 45.4439 70.6253 46.2534 70.2122 46.9568C69.8102 47.649 69.2631 48.1905 68.5709 48.5813C67.8898 48.9721 67.125 49.1675 66.2765 49.1675C65.428 49.1675 64.6576 48.9721 63.9653 48.5813C63.2843 48.1905 62.7372 47.649 62.3241 46.9568C61.9221 46.2534 61.7212 45.4439 61.7212 44.5284C61.7212 43.6129 61.9221 42.809 62.3241 42.1168C62.7372 41.4134 63.2843 40.8663 63.9653 40.4755C64.6576 40.0736 65.428 39.8726 66.2765 39.8726C67.125 39.8726 67.8898 40.0736 68.5709 40.4755C69.2631 40.8663 69.8102 41.4134 70.2122 42.1168C70.6253 42.809 70.8318 43.6129 70.8318 44.5284ZM68.8221 44.5284C68.8221 43.959 68.7049 43.4677 68.4704 43.0546C68.2471 42.6304 67.9401 42.301 67.5493 42.0665C67.1697 41.8321 66.7454 41.7148 66.2765 41.7148C65.8076 41.7148 65.3777 41.8321 64.9869 42.0665C64.6073 42.301 64.3003 42.6304 64.0658 43.0546C63.8425 43.4677 63.7309 43.959 63.7309 44.5284C63.7309 45.0867 63.8425 45.5779 64.0658 46.0022C64.3003 46.4153 64.6073 46.7391 64.9869 46.9736C65.3777 47.208 65.8076 47.3253 66.2765 47.3253C66.7454 47.3253 67.1697 47.208 67.5493 46.9736C67.9401 46.7391 68.2471 46.4153 68.4704 46.0022C68.7049 45.5779 68.8221 45.0867 68.8221 44.5284ZM79.2395 40.0401C79.5297 40.0401 79.7698 40.1406 79.9596 40.3415C80.1494 40.5313 80.2443 40.7714 80.2443 41.0617V45.3155C80.2443 46.499 79.9149 47.4369 79.2562 48.1291C78.5975 48.8214 77.6484 49.1675 76.4091 49.1675C75.1698 49.1675 74.2208 48.8214 73.562 48.1291C72.9145 47.4369 72.5907 46.499 72.5907 45.3155V41.0617C72.5907 40.7714 72.6856 40.5313 72.8754 40.3415C73.0652 40.1406 73.3053 40.0401 73.5955 40.0401C73.8858 40.0401 74.1259 40.1406 74.3157 40.3415C74.5055 40.5313 74.6004 40.7714 74.6004 41.0617V45.3155C74.6004 45.9966 74.7511 46.5046 75.0526 46.8396C75.354 47.1634 75.8062 47.3253 76.4091 47.3253C77.0232 47.3253 77.481 47.1634 77.7824 46.8396C78.0839 46.5046 78.2346 45.9966 78.2346 45.3155V41.0617C78.2346 40.7714 78.3295 40.5313 78.5193 40.3415C78.7091 40.1406 78.9492 40.0401 79.2395 40.0401ZM89.7554 36.6069C90.0457 36.6069 90.2858 36.7018 90.4756 36.8916C90.6654 37.0814 90.7603 37.327 90.7603 37.6284V47.9784C90.7603 48.2687 90.6654 48.5143 90.4756 48.7153C90.2858 48.9051 90.0457 49 89.7554 49C89.4652 49 89.2251 48.9051 89.0353 48.7153C88.8455 48.5143 88.7506 48.2687 88.7506 47.9784V47.1578L89.119 47.3085C89.119 47.4536 89.0409 47.6323 88.8846 47.8444C88.7283 48.0454 88.5161 48.2464 88.2482 48.4473C87.9802 48.6483 87.662 48.8214 87.2936 48.9665C86.9363 49.1005 86.5455 49.1675 86.1212 49.1675C85.3509 49.1675 84.653 48.9721 84.0278 48.5813C83.4026 48.1794 82.9057 47.6323 82.5373 46.9401C82.18 46.2367 82.0014 45.4328 82.0014 44.5284C82.0014 43.6129 82.18 42.809 82.5373 42.1168C82.9057 41.4134 83.397 40.8663 84.0111 40.4755C84.6251 40.0736 85.3062 39.8726 86.0542 39.8726C86.5343 39.8726 86.9754 39.9452 87.3773 40.0903C87.7792 40.2355 88.1254 40.4197 88.4156 40.643C88.7171 40.8663 88.946 41.0952 89.1023 41.3296C89.2698 41.5529 89.3535 41.7427 89.3535 41.8991L88.7506 42.1168V37.6284C88.7506 37.3382 88.8455 37.0981 89.0353 36.9083C89.2251 36.7073 89.4652 36.6069 89.7554 36.6069ZM86.3724 47.3253C86.8637 47.3253 87.2936 47.2024 87.662 46.9568C88.0305 46.7112 88.3152 46.3762 88.5161 45.952C88.7283 45.5277 88.8343 45.0532 88.8343 44.5284C88.8343 43.9925 88.7283 43.5124 88.5161 43.0881C88.3152 42.6639 88.0305 42.3289 87.662 42.0833C87.2936 41.8377 86.8637 41.7148 86.3724 41.7148C85.8924 41.7148 85.4681 41.8377 85.0996 42.0833C84.7312 42.3289 84.4409 42.6639 84.2288 43.0881C84.0278 43.5124 83.9273 43.9925 83.9273 44.5284C83.9273 45.0532 84.0278 45.5277 84.2288 45.952C84.4409 46.3762 84.7312 46.7112 85.0996 46.9568C85.4681 47.2024 85.8924 47.3253 86.3724 47.3253ZM96.9222 39.8726C97.5586 39.8726 98.1113 39.9396 98.5802 40.0736C99.0603 40.2076 99.4287 40.3974 99.6855 40.643C99.9535 40.8775 100.087 41.1622 100.087 41.4971C100.087 41.7204 100.02 41.9326 99.8865 42.1335C99.7525 42.3233 99.5571 42.4182 99.3003 42.4182C99.1217 42.4182 98.971 42.3959 98.8482 42.3512C98.7365 42.2954 98.636 42.2284 98.5467 42.1503C98.4574 42.0721 98.3513 41.9995 98.2285 41.9326C98.1168 41.8656 97.9438 41.8153 97.7093 41.7818C97.486 41.7372 97.3186 41.7148 97.2069 41.7148C96.6375 41.7148 96.1518 41.8377 95.7499 42.0833C95.3591 42.3289 95.0576 42.6639 94.8455 43.0881C94.6334 43.5012 94.5273 43.9813 94.5273 44.5284C94.5273 45.0643 94.6334 45.5444 94.8455 45.9687C95.0688 46.3818 95.3703 46.7112 95.7499 46.9568C96.1406 47.2024 96.5872 47.3253 97.0897 47.3253C97.3688 47.3253 97.6088 47.3085 97.8098 47.275C98.0108 47.2415 98.1783 47.1913 98.3122 47.1243C98.4685 47.035 98.6081 46.9401 98.7309 46.8396C98.8537 46.7391 99.038 46.6888 99.2836 46.6888C99.5739 46.6888 99.7972 46.7837 99.9535 46.9736C100.11 47.1522 100.188 47.3755 100.188 47.6435C100.188 47.9226 100.032 48.1794 99.719 48.4138C99.4064 48.6371 98.9933 48.8214 98.4797 48.9665C97.9773 49.1005 97.4302 49.1675 96.8385 49.1675C95.9564 49.1675 95.1916 48.9665 94.544 48.5646C93.8965 48.1515 93.3941 47.5932 93.0368 46.8898C92.6907 46.1864 92.5176 45.3993 92.5176 44.5284C92.5176 43.6129 92.7018 42.809 93.0703 42.1168C93.4499 41.4134 93.9691 40.8663 94.6278 40.4755C95.2977 40.0736 96.0625 39.8726 96.9222 39.8726ZM108.973 39.8726C109.263 39.8726 109.503 39.9675 109.693 40.1573C109.882 40.3471 109.977 40.5928 109.977 40.8942V47.9784C109.977 48.2687 109.882 48.5143 109.693 48.7153C109.503 48.9051 109.263 49 108.973 49C108.682 49 108.442 48.9051 108.252 48.7153C108.063 48.5143 107.968 48.2687 107.968 47.9784V47.1578L108.336 47.3085C108.336 47.4536 108.258 47.6323 108.102 47.8444C107.945 48.0454 107.733 48.2464 107.465 48.4473C107.197 48.6483 106.879 48.8214 106.511 48.9665C106.153 49.1005 105.763 49.1675 105.338 49.1675C104.568 49.1675 103.87 48.9721 103.245 48.5813C102.62 48.1794 102.123 47.6323 101.754 46.9401C101.397 46.2367 101.218 45.4328 101.218 44.5284C101.218 43.6129 101.397 42.809 101.754 42.1168C102.123 41.4134 102.614 40.8663 103.228 40.4755C103.842 40.0736 104.523 39.8726 105.271 39.8726C105.751 39.8726 106.192 39.9452 106.594 40.0903C106.996 40.2355 107.342 40.4197 107.633 40.643C107.934 40.8663 108.163 41.0952 108.319 41.3296C108.487 41.5529 108.571 41.7427 108.571 41.8991L107.968 42.1168V40.8942C107.968 40.6039 108.063 40.3639 108.252 40.1741C108.442 39.9731 108.682 39.8726 108.973 39.8726ZM105.59 47.3253C106.081 47.3253 106.511 47.2024 106.879 46.9568C107.248 46.7112 107.532 46.3762 107.733 45.952C107.945 45.5277 108.051 45.0532 108.051 44.5284C108.051 43.9925 107.945 43.5124 107.733 43.0881C107.532 42.6639 107.248 42.3289 106.879 42.0833C106.511 41.8377 106.081 41.7148 105.59 41.7148C105.109 41.7148 104.685 41.8377 104.317 42.0833C103.948 42.3289 103.658 42.6639 103.446 43.0881C103.245 43.5124 103.144 43.9925 103.144 44.5284C103.144 45.0532 103.245 45.5277 103.446 45.952C103.658 46.3762 103.948 46.7112 104.317 46.9568C104.685 47.2024 105.109 47.3253 105.59 47.3253ZM111.634 47.61C111.523 47.4536 111.472 47.2527 111.483 47.007C111.495 46.7614 111.64 46.5493 111.919 46.3706C112.098 46.259 112.287 46.2143 112.488 46.2367C112.689 46.2478 112.885 46.3483 113.075 46.5381C113.398 46.8619 113.739 47.1131 114.096 47.2918C114.453 47.4704 114.9 47.5597 115.436 47.5597C115.603 47.5485 115.788 47.5262 115.989 47.4927C116.19 47.4481 116.363 47.3587 116.508 47.2248C116.664 47.0796 116.742 46.8619 116.742 46.5716C116.742 46.326 116.658 46.1306 116.491 45.9854C116.324 45.8403 116.1 45.7175 115.821 45.617C115.553 45.5165 115.252 45.4216 114.917 45.3323C114.571 45.2318 114.213 45.1202 113.845 44.9973C113.488 44.8745 113.158 44.7182 112.857 44.5284C112.555 44.3274 112.31 44.0651 112.12 43.7413C111.93 43.4175 111.835 43.01 111.835 42.5187C111.835 41.9605 111.991 41.486 112.304 41.0952C112.617 40.7044 113.019 40.4029 113.51 40.1908C114.012 39.9787 114.537 39.8726 115.084 39.8726C115.43 39.8726 115.793 39.9173 116.173 40.0066C116.552 40.0847 116.915 40.2187 117.261 40.4085C117.607 40.5872 117.898 40.8272 118.132 41.1287C118.255 41.2961 118.328 41.4971 118.35 41.7316C118.372 41.966 118.266 42.1782 118.032 42.368C117.864 42.502 117.669 42.5634 117.446 42.5522C117.222 42.5299 117.038 42.4517 116.893 42.3177C116.703 42.0721 116.446 41.8767 116.123 41.7316C115.81 41.5864 115.447 41.5139 115.034 41.5139C114.866 41.5139 114.682 41.5362 114.481 41.5809C114.291 41.6144 114.124 41.6981 113.979 41.8321C113.834 41.9549 113.761 42.1559 113.761 42.435C113.761 42.6918 113.845 42.8983 114.012 43.0546C114.18 43.1998 114.403 43.3226 114.682 43.4231C114.973 43.5124 115.28 43.6017 115.603 43.691C115.938 43.7804 116.279 43.8864 116.625 44.0092C116.971 44.1321 117.289 44.294 117.58 44.4949C117.87 44.6959 118.104 44.9583 118.283 45.2821C118.462 45.5947 118.551 45.9966 118.551 46.4879C118.551 47.0573 118.383 47.543 118.049 47.9449C117.714 48.3468 117.295 48.6539 116.792 48.866C116.29 49.067 115.776 49.1675 115.252 49.1675C114.593 49.1675 113.934 49.0558 113.275 48.8325C112.617 48.5981 112.07 48.1905 111.634 47.61ZM124.939 39.8726C125.743 39.8726 126.351 40.0457 126.764 40.3918C127.189 40.7379 127.479 41.2012 127.635 41.7818C127.791 42.3512 127.87 42.9876 127.87 43.691V47.9784C127.87 48.2687 127.775 48.5143 127.585 48.7153C127.395 48.9051 127.155 49 126.865 49C126.574 49 126.334 48.9051 126.145 48.7153C125.955 48.5143 125.86 48.2687 125.86 47.9784V43.691C125.86 43.3226 125.815 42.9932 125.726 42.7029C125.637 42.4015 125.475 42.1614 125.24 41.9828C125.006 41.8042 124.671 41.7148 124.235 41.7148C123.811 41.7148 123.448 41.8042 123.147 41.9828C122.845 42.1614 122.616 42.4015 122.46 42.7029C122.315 42.9932 122.242 43.3226 122.242 43.691V47.9784C122.242 48.2687 122.148 48.5143 121.958 48.7153C121.768 48.9051 121.528 49 121.238 49C120.947 49 120.707 48.9051 120.517 48.7153C120.328 48.5143 120.233 48.2687 120.233 47.9784V37.6284C120.233 37.3382 120.328 37.0981 120.517 36.9083C120.707 36.7073 120.947 36.6069 121.238 36.6069C121.528 36.6069 121.768 36.7073 121.958 36.9083C122.148 37.0981 122.242 37.3382 122.242 37.6284V41.7818L121.991 41.7316C122.092 41.5418 122.231 41.3408 122.41 41.1287C122.589 40.9054 122.806 40.6988 123.063 40.509C123.32 40.3192 123.605 40.1685 123.917 40.0568C124.23 39.934 124.57 39.8726 124.939 39.8726Z" fill="white"/>
<path opacity="0.54" d="M50.524 61.124C50.7213 61.124 50.8933 61.1 51.04 61.052C51.1867 61.0013 51.308 60.9307 51.404 60.84C51.5027 60.7467 51.576 60.6347 51.624 60.504C51.672 60.3707 51.696 60.2227 51.696 60.06C51.696 59.9053 51.672 59.7653 51.624 59.64C51.576 59.5147 51.504 59.408 51.408 59.32C51.312 59.232 51.1907 59.1653 51.044 59.12C50.8973 59.072 50.724 59.048 50.524 59.048H49.72V61.124H50.524ZM50.524 58.216C50.9107 58.216 51.2453 58.2613 51.528 58.352C51.8107 58.4427 52.044 58.5693 52.228 58.732C52.412 58.8947 52.548 59.0893 52.636 59.316C52.7267 59.5427 52.772 59.7907 52.772 60.06C52.772 60.34 52.7253 60.5973 52.632 60.832C52.5387 61.064 52.3987 61.264 52.212 61.432C52.0253 61.6 51.7907 61.7307 51.508 61.824C51.228 61.9173 50.9 61.964 50.524 61.964H49.72V64H48.644V58.216H50.524ZM55.3451 60.968C55.5478 60.968 55.7238 60.9427 55.8731 60.892C56.0251 60.8413 56.1491 60.772 56.2451 60.684C56.3438 60.5933 56.4171 60.4867 56.4651 60.364C56.5131 60.2413 56.5371 60.1067 56.5371 59.96C56.5371 59.6667 56.4398 59.4413 56.2451 59.284C56.0531 59.1267 55.7585 59.048 55.3611 59.048H54.6731V60.968H55.3451ZM58.1131 64H57.1411C56.9571 64 56.8238 63.928 56.7411 63.784L55.5251 61.932C55.4798 61.8627 55.4291 61.8133 55.3731 61.784C55.3198 61.7547 55.2398 61.74 55.1331 61.74H54.6731V64H53.5971V58.216H55.3611C55.7531 58.216 56.0891 58.2573 56.3691 58.34C56.6518 58.42 56.8825 58.5333 57.0611 58.68C57.2425 58.8267 57.3758 59.0027 57.4611 59.208C57.5465 59.4107 57.5891 59.6347 57.5891 59.88C57.5891 60.0747 57.5598 60.2587 57.5011 60.432C57.4451 60.6053 57.3625 60.7627 57.2531 60.904C57.1465 61.0453 57.0131 61.1693 56.8531 61.276C56.6958 61.3827 56.5158 61.4667 56.3131 61.528C56.3825 61.568 56.4465 61.616 56.5051 61.672C56.5638 61.7253 56.6171 61.7893 56.6651 61.864L58.1131 64ZM59.8178 59.072V60.676H61.8418V61.504H59.8178V63.14H62.3858V64H58.7378V58.216H62.3858V59.072H59.8178ZM69.6113 58.216V64H68.6633V60.264C68.6633 60.1147 68.6713 59.9533 68.6873 59.78L66.9393 63.064C66.8566 63.2213 66.73 63.3 66.5593 63.3H66.4073C66.2366 63.3 66.11 63.2213 66.0273 63.064L64.2593 59.768C64.2673 59.856 64.274 59.9427 64.2793 60.028C64.2846 60.1133 64.2873 60.192 64.2873 60.264V64H63.3393V58.216H64.1513C64.1993 58.216 64.2406 58.2173 64.2753 58.22C64.31 58.2227 64.3406 58.2293 64.3673 58.24C64.3966 58.2507 64.422 58.268 64.4433 58.292C64.4673 58.316 64.49 58.348 64.5113 58.388L66.2433 61.6C66.2886 61.6853 66.33 61.7733 66.3673 61.864C66.4073 61.9547 66.446 62.048 66.4833 62.144C66.5206 62.0453 66.5593 61.9507 66.5993 61.86C66.6393 61.7667 66.682 61.6773 66.7273 61.592L68.4353 58.388C68.4566 58.348 68.4793 58.316 68.5033 58.292C68.5273 58.268 68.5526 58.2507 68.5793 58.24C68.6086 58.2293 68.6406 58.2227 68.6753 58.22C68.71 58.2173 68.7513 58.216 68.7993 58.216H69.6113ZM71.9818 64H70.9018V58.216H71.9818V64ZM75.6048 63.132C75.8128 63.132 75.9981 63.0973 76.1608 63.028C76.3261 62.9587 76.4648 62.8613 76.5768 62.736C76.6888 62.6107 76.7741 62.4587 76.8328 62.28C76.8941 62.1013 76.9248 61.9013 76.9248 61.68V58.216H78.0008V61.68C78.0008 62.024 77.9448 62.3427 77.8328 62.636C77.7235 62.9267 77.5648 63.1787 77.3568 63.392C77.1515 63.6027 76.9008 63.768 76.6048 63.888C76.3088 64.0053 75.9755 64.064 75.6048 64.064C75.2315 64.064 74.8968 64.0053 74.6008 63.888C74.3048 63.768 74.0528 63.6027 73.8448 63.392C73.6395 63.1787 73.4808 62.9267 73.3688 62.636C73.2595 62.3427 73.2048 62.024 73.2048 61.68V58.216H74.2808V61.676C74.2808 61.8973 74.3101 62.0973 74.3688 62.276C74.4301 62.4547 74.5168 62.608 74.6288 62.736C74.7435 62.8613 74.8821 62.9587 75.0448 63.028C75.2101 63.0973 75.3968 63.132 75.6048 63.132ZM85.4863 58.216V64H84.5383V60.264C84.5383 60.1147 84.5463 59.9533 84.5623 59.78L82.8143 63.064C82.7316 63.2213 82.605 63.3 82.4343 63.3H82.2823C82.1116 63.3 81.985 63.2213 81.9023 63.064L80.1343 59.768C80.1423 59.856 80.149 59.9427 80.1543 60.028C80.1596 60.1133 80.1623 60.192 80.1623 60.264V64H79.2143V58.216H80.0263C80.0743 58.216 80.1156 58.2173 80.1503 58.22C80.185 58.2227 80.2156 58.2293 80.2423 58.24C80.2716 58.2507 80.297 58.268 80.3183 58.292C80.3423 58.316 80.365 58.348 80.3863 58.388L82.1183 61.6C82.1636 61.6853 82.205 61.7733 82.2423 61.864C82.2823 61.9547 82.321 62.048 82.3583 62.144C82.3956 62.0453 82.4343 61.9507 82.4743 61.86C82.5143 61.7667 82.557 61.6773 82.6023 61.592L84.3103 58.388C84.3316 58.348 84.3543 58.316 84.3783 58.292C84.4023 58.268 84.4276 58.2507 84.4543 58.24C84.4836 58.2293 84.5156 58.2227 84.5503 58.22C84.585 58.2173 84.6263 58.216 84.6743 58.216H85.4863ZM91.5125 61.816L90.8085 59.892C90.7738 59.8067 90.7378 59.7053 90.7005 59.588C90.6632 59.4707 90.6258 59.344 90.5885 59.208C90.5538 59.344 90.5178 59.472 90.4805 59.592C90.4432 59.7093 90.4072 59.812 90.3725 59.9L89.6725 61.816H91.5125ZM93.4125 64H92.5805C92.4872 64 92.4112 63.9773 92.3525 63.932C92.2938 63.884 92.2498 63.8253 92.2205 63.756L91.7885 62.576H89.3925L88.9605 63.756C88.9392 63.8173 88.8978 63.8733 88.8365 63.924C88.7752 63.9747 88.6992 64 88.6085 64H87.7685L90.0445 58.216H91.1405L93.4125 64ZM97.8113 62.636C97.87 62.636 97.922 62.6587 97.9673 62.704L98.3913 63.164C98.1566 63.4547 97.8673 63.6773 97.5233 63.832C97.182 63.9867 96.7713 64.064 96.2913 64.064C95.862 64.064 95.4753 63.9907 95.1313 63.844C94.79 63.6973 94.498 63.4933 94.2553 63.232C94.0126 62.9707 93.826 62.6587 93.6953 62.296C93.5673 61.9333 93.5033 61.5373 93.5033 61.108C93.5033 60.6733 93.5726 60.276 93.7113 59.916C93.85 59.5533 94.0446 59.2413 94.2953 58.98C94.5486 58.7187 94.85 58.516 95.1993 58.372C95.5486 58.2253 95.9353 58.152 96.3593 58.152C96.7806 58.152 97.154 58.2213 97.4793 58.36C97.8073 58.4987 98.086 58.68 98.3153 58.904L97.9553 59.404C97.934 59.436 97.906 59.464 97.8713 59.488C97.8393 59.512 97.794 59.524 97.7353 59.524C97.6953 59.524 97.654 59.5133 97.6113 59.492C97.5686 59.468 97.522 59.44 97.4713 59.408C97.4206 59.3733 97.362 59.336 97.2953 59.296C97.2286 59.256 97.1513 59.22 97.0633 59.188C96.9753 59.1533 96.8726 59.1253 96.7553 59.104C96.6406 59.08 96.5073 59.068 96.3553 59.068C96.0966 59.068 95.8593 59.1147 95.6433 59.208C95.43 59.2987 95.246 59.432 95.0913 59.608C94.9366 59.7813 94.8166 59.9947 94.7313 60.248C94.646 60.4987 94.6033 60.7853 94.6033 61.108C94.6033 61.4333 94.6486 61.7227 94.7393 61.976C94.8326 62.2293 94.958 62.4427 95.1153 62.616C95.2726 62.7893 95.458 62.9227 95.6713 63.016C95.8846 63.1067 96.114 63.152 96.3593 63.152C96.506 63.152 96.638 63.144 96.7553 63.128C96.8753 63.112 96.9846 63.0867 97.0833 63.052C97.1846 63.0173 97.2793 62.9733 97.3673 62.92C97.458 62.864 97.5473 62.796 97.6353 62.716C97.662 62.692 97.69 62.6733 97.7193 62.66C97.7486 62.644 97.7793 62.636 97.8113 62.636ZM102.975 62.636C103.034 62.636 103.086 62.6587 103.131 62.704L103.555 63.164C103.321 63.4547 103.031 63.6773 102.687 63.832C102.346 63.9867 101.935 64.064 101.455 64.064C101.026 64.064 100.639 63.9907 100.295 63.844C99.954 63.6973 99.662 63.4933 99.4194 63.232C99.1767 62.9707 98.99 62.6587 98.8594 62.296C98.7314 61.9333 98.6674 61.5373 98.6674 61.108C98.6674 60.6733 98.7367 60.276 98.8754 59.916C99.014 59.5533 99.2087 59.2413 99.4594 58.98C99.7127 58.7187 100.014 58.516 100.363 58.372C100.713 58.2253 101.099 58.152 101.523 58.152C101.945 58.152 102.318 58.2213 102.643 58.36C102.971 58.4987 103.25 58.68 103.479 58.904L103.119 59.404C103.098 59.436 103.07 59.464 103.035 59.488C103.003 59.512 102.958 59.524 102.899 59.524C102.859 59.524 102.818 59.5133 102.775 59.492C102.733 59.468 102.686 59.44 102.635 59.408C102.585 59.3733 102.526 59.336 102.459 59.296C102.393 59.256 102.315 59.22 102.227 59.188C102.139 59.1533 102.037 59.1253 101.919 59.104C101.805 59.08 101.671 59.068 101.519 59.068C101.261 59.068 101.023 59.1147 100.807 59.208C100.594 59.2987 100.41 59.432 100.255 59.608C100.101 59.7813 99.9807 59.9947 99.8954 60.248C99.81 60.4987 99.7674 60.7853 99.7674 61.108C99.7674 61.4333 99.8127 61.7227 99.9034 61.976C99.9967 62.2293 100.122 62.4427 100.279 62.616C100.437 62.7893 100.622 62.9227 100.835 63.016C101.049 63.1067 101.278 63.152 101.523 63.152C101.67 63.152 101.802 63.144 101.919 63.128C102.039 63.112 102.149 63.0867 102.247 63.052C102.349 63.0173 102.443 62.9733 102.531 62.92C102.622 62.864 102.711 62.796 102.799 62.716C102.826 62.692 102.854 62.6733 102.883 62.66C102.913 62.644 102.943 62.636 102.975 62.636ZM109.683 61.108C109.683 61.532 109.613 61.9253 109.471 62.288C109.333 62.648 109.135 62.96 108.879 63.224C108.623 63.488 108.315 63.6947 107.955 63.844C107.595 63.9907 107.195 64.064 106.755 64.064C106.318 64.064 105.919 63.9907 105.559 63.844C105.199 63.6947 104.89 63.488 104.631 63.224C104.375 62.96 104.177 62.648 104.035 62.288C103.894 61.9253 103.823 61.532 103.823 61.108C103.823 60.684 103.894 60.292 104.035 59.932C104.177 59.5693 104.375 59.256 104.631 58.992C104.89 58.728 105.199 58.5227 105.559 58.376C105.919 58.2267 106.318 58.152 106.755 58.152C107.049 58.152 107.325 58.1867 107.583 58.256C107.842 58.3227 108.079 58.4187 108.295 58.544C108.511 58.6667 108.705 58.8173 108.875 58.996C109.049 59.172 109.195 59.3693 109.315 59.588C109.435 59.8067 109.526 60.044 109.587 60.3C109.651 60.556 109.683 60.8253 109.683 61.108ZM108.583 61.108C108.583 60.7907 108.541 60.5067 108.455 60.256C108.37 60.0027 108.249 59.788 108.091 59.612C107.934 59.436 107.742 59.3013 107.515 59.208C107.291 59.1147 107.038 59.068 106.755 59.068C106.473 59.068 106.218 59.1147 105.991 59.208C105.767 59.3013 105.575 59.436 105.415 59.612C105.258 59.788 105.137 60.0027 105.051 60.256C104.966 60.5067 104.923 60.7907 104.923 61.108C104.923 61.4253 104.966 61.7107 105.051 61.964C105.137 62.2147 105.258 62.428 105.415 62.604C105.575 62.7773 105.767 62.9107 105.991 63.004C106.218 63.0973 106.473 63.144 106.755 63.144C107.038 63.144 107.291 63.0973 107.515 63.004C107.742 62.9107 107.934 62.7773 108.091 62.604C108.249 62.428 108.37 62.2147 108.455 61.964C108.541 61.7107 108.583 61.4253 108.583 61.108ZM112.956 63.132C113.164 63.132 113.35 63.0973 113.512 63.028C113.678 62.9587 113.816 62.8613 113.928 62.736C114.04 62.6107 114.126 62.4587 114.184 62.28C114.246 62.1013 114.276 61.9013 114.276 61.68V58.216H115.352V61.68C115.352 62.024 115.296 62.3427 115.184 62.636C115.075 62.9267 114.916 63.1787 114.708 63.392C114.503 63.6027 114.252 63.768 113.956 63.888C113.66 64.0053 113.327 64.064 112.956 64.064C112.583 64.064 112.248 64.0053 111.952 63.888C111.656 63.768 111.404 63.6027 111.196 63.392C110.991 63.1787 110.832 62.9267 110.72 62.636C110.611 62.3427 110.556 62.024 110.556 61.68V58.216H111.632V61.676C111.632 61.8973 111.662 62.0973 111.72 62.276C111.782 62.4547 111.868 62.608 111.98 62.736C112.095 62.8613 112.234 62.9587 112.396 63.028C112.562 63.0973 112.748 63.132 112.956 63.132ZM121.442 58.216V64H120.89C120.805 64 120.733 63.9867 120.674 63.96C120.618 63.9307 120.563 63.8827 120.51 63.816L117.49 59.96C117.506 60.136 117.514 60.2987 117.514 60.448V64H116.566V58.216H117.13C117.175 58.216 117.214 58.2187 117.246 58.224C117.281 58.2267 117.31 58.2347 117.334 58.248C117.361 58.2587 117.386 58.276 117.41 58.3C117.434 58.3213 117.461 58.3507 117.49 58.388L120.522 62.26C120.514 62.1667 120.507 62.0747 120.502 61.984C120.497 61.8933 120.494 61.8093 120.494 61.732V58.216H121.442ZM126.77 59.1H125.026V64H123.95V59.1H122.206V58.216H126.77V59.1Z" fill="white"/>
<path d="M55.9918 107.702L55.7867 108.801H51.3231V112.362C51.6677 112.176 51.9932 112.05 52.2995 111.985C52.6113 111.914 52.9368 111.878 53.2759 111.878C53.8885 111.878 54.4274 112.017 54.8923 112.296C55.3573 112.57 55.7183 112.972 55.9754 113.503C56.2325 114.033 56.361 114.673 56.361 115.423C56.361 116.172 56.2024 116.831 55.8851 117.4C55.5733 117.969 55.133 118.409 54.5641 118.721C53.9952 119.033 53.3197 119.189 52.5374 119.189C51.8591 119.189 51.252 119.068 50.7159 118.828C50.1853 118.587 49.7012 118.253 49.2636 117.827L50.1169 117.006C50.4615 117.356 50.8308 117.619 51.2246 117.794C51.6239 117.963 52.067 118.048 52.5538 118.048C53.2978 118.048 53.8776 117.824 54.2933 117.375C54.7091 116.921 54.9169 116.257 54.9169 115.382C54.9169 114.774 54.8267 114.296 54.6462 113.946C54.4656 113.596 54.2195 113.347 53.9077 113.199C53.6014 113.046 53.2595 112.969 52.8821 112.969C52.5484 112.969 52.253 113.002 51.9959 113.068C51.7388 113.128 51.4462 113.221 51.1179 113.347H50.0103V107.702H55.9918ZM61.6263 119.156L60.3381 118.762L64.7443 108.85H59.4437V107.702H66.1309V108.76L61.6263 119.156ZM75.9993 110.393C75.9993 110.94 75.8297 111.416 75.4906 111.821C75.1514 112.22 74.6673 112.592 74.0383 112.936C74.7767 113.243 75.3648 113.65 75.8024 114.159C76.24 114.668 76.4588 115.272 76.4588 115.972C76.4588 116.585 76.3001 117.135 75.9829 117.622C75.6656 118.108 75.2171 118.491 74.6372 118.77C74.0629 119.049 73.3764 119.189 72.5778 119.189C71.7737 119.189 71.0844 119.049 70.5101 118.77C69.9412 118.486 69.5063 118.103 69.2054 117.622C68.9101 117.14 68.7624 116.599 68.7624 115.997C68.7624 115.302 68.9675 114.717 69.3778 114.241C69.7935 113.76 70.3432 113.363 71.027 113.051C70.4307 112.767 69.9795 112.422 69.6731 112.017C69.3723 111.613 69.2219 111.096 69.2219 110.467C69.2219 109.947 69.3258 109.504 69.5337 109.137C69.747 108.765 70.0205 108.459 70.3542 108.218C70.6933 107.978 71.0598 107.803 71.4537 107.693C71.853 107.578 72.2386 107.521 72.6106 107.521C73.0208 107.521 73.4256 107.578 73.8249 107.693C74.2297 107.803 74.5962 107.975 74.9244 108.21C75.2526 108.44 75.5125 108.735 75.7039 109.096C75.9008 109.457 75.9993 109.89 75.9993 110.393ZM75.0065 115.989C75.0065 115.48 74.8779 115.078 74.6208 114.783C74.3637 114.487 74.0082 114.241 73.5542 114.044C73.1001 113.847 72.575 113.648 71.9788 113.445C71.667 113.587 71.3771 113.768 71.109 113.987C70.841 114.205 70.6249 114.479 70.4608 114.807C70.2967 115.13 70.2147 115.529 70.2147 116.005C70.2147 116.645 70.4116 117.151 70.8054 117.523C71.2048 117.89 71.7928 118.073 72.5696 118.073C73.3572 118.073 73.959 117.876 74.3747 117.482C74.7959 117.083 75.0065 116.585 75.0065 115.989ZM70.5839 110.483C70.5839 110.915 70.6824 111.254 70.8793 111.501C71.0817 111.747 71.3689 111.949 71.7408 112.108C72.1128 112.261 72.5531 112.422 73.0619 112.592C73.587 112.291 73.9808 111.987 74.2434 111.681C74.506 111.369 74.6372 110.956 74.6372 110.442C74.6372 109.873 74.4595 109.422 74.1039 109.088C73.7538 108.755 73.256 108.588 72.6106 108.588C71.9706 108.588 71.4728 108.755 71.1172 109.088C70.7617 109.422 70.5839 109.887 70.5839 110.483ZM82.282 107.537C83.1025 107.537 83.7863 107.726 84.3333 108.104C84.8803 108.481 85.2878 109.014 85.5559 109.704C85.8294 110.393 85.9661 111.211 85.9661 112.157C85.9661 113.295 85.8485 114.26 85.6133 115.053C85.3836 115.841 85.0253 116.5 84.5384 117.031C84.0516 117.561 83.428 118.007 82.6677 118.368C81.9073 118.729 80.9993 119.055 79.9436 119.345L79.6236 118.294C80.6957 117.994 81.5873 117.638 82.2984 117.228C83.0095 116.812 83.5483 116.29 83.9148 115.661C84.2813 115.026 84.4783 114.238 84.5056 113.297L84.5302 112.51C84.5357 111.569 84.4564 110.817 84.2923 110.253C84.1336 109.684 83.8875 109.277 83.5538 109.031C83.2256 108.779 82.8017 108.653 82.282 108.653C81.549 108.653 80.9938 108.878 80.6164 109.326C80.2389 109.775 80.0502 110.431 80.0502 111.295C80.0502 112.154 80.2307 112.781 80.5918 113.174C80.9583 113.563 81.4642 113.757 82.1097 113.757C82.6731 113.757 83.16 113.598 83.5702 113.281C83.9805 112.964 84.3689 112.537 84.7354 112.001L84.7271 113.199C84.3935 113.68 83.9914 114.077 83.521 114.389C83.0506 114.701 82.4954 114.856 81.8554 114.856C81.2263 114.856 80.6683 114.711 80.1815 114.422C79.6947 114.132 79.3118 113.719 79.0328 113.183C78.7593 112.646 78.6225 112.001 78.6225 111.246C78.6225 110.442 78.7866 109.764 79.1148 109.211C79.443 108.659 79.8834 108.243 80.4359 107.964C80.9883 107.68 81.6037 107.537 82.282 107.537Z" fill="white"/>
<path d="M104.226 109.507L104.332 112.83L101.214 111.722L100.796 113.018L103.971 113.954L101.945 116.579L103.044 117.384L104.923 114.643L106.802 117.384L107.902 116.579L105.875 113.954L109.05 113.018L108.632 111.722L105.514 112.83L105.621 109.507H104.226ZM123.913 109.507L124.02 112.83L120.902 111.722L120.483 113.018L123.659 113.954L121.632 116.579L122.732 117.384L124.611 114.643L126.49 117.384L127.589 116.579L125.562 113.954L128.738 113.018L128.319 111.722L125.201 112.83L125.308 109.507H123.913ZM143.601 109.507L143.707 112.83L140.589 111.722L140.171 113.018L143.346 113.954L141.32 116.579L142.419 117.384L144.298 114.643L146.177 117.384L147.277 116.579L145.25 113.954L148.425 113.018L148.007 111.722L144.889 112.83L144.996 109.507H143.601ZM163.288 109.507L163.395 112.83L160.277 111.722L159.858 113.018L163.034 113.954L161.007 116.579L162.107 117.384L163.986 114.643L165.865 117.384L166.964 116.579L164.937 113.954L168.113 113.018L167.694 111.722L164.576 112.83L164.683 109.507H163.288Z" fill="white"/>
<path d="M185.226 109.507L185.332 112.83L182.214 111.722L181.796 113.018L184.971 113.954L182.945 116.579L184.044 117.384L185.923 114.643L187.802 117.384L188.902 116.579L186.875 113.954L190.05 113.018L189.632 111.722L186.514 112.83L186.621 109.507H185.226ZM204.913 109.507L205.02 112.83L201.902 111.722L201.483 113.018L204.659 113.954L202.632 116.579L203.732 117.384L205.611 114.643L207.49 117.384L208.589 116.579L206.562 113.954L209.738 113.018L209.319 111.722L206.201 112.83L206.308 109.507H204.913ZM224.601 109.507L224.707 112.83L221.589 111.722L221.171 113.018L224.346 113.954L222.32 116.579L223.419 117.384L225.298 114.643L227.177 117.384L228.277 116.579L226.25 113.954L229.425 113.018L229.007 111.722L225.889 112.83L225.996 109.507H224.601ZM244.288 109.507L244.395 112.83L241.277 111.722L240.858 113.018L244.034 113.954L242.007 116.579L243.107 117.384L244.986 114.643L246.865 117.384L247.964 116.579L245.937 113.954L249.113 113.018L248.694 111.722L245.576 112.83L245.683 109.507H244.288Z" fill="white"/>
<path d="M266.423 107.521C267.134 107.521 267.741 107.658 268.244 107.931C268.753 108.205 269.144 108.579 269.417 109.055C269.691 109.531 269.828 110.07 269.828 110.672C269.828 111.191 269.737 111.7 269.557 112.198C269.376 112.69 269.086 113.21 268.687 113.757C268.293 114.298 267.774 114.9 267.128 115.562C266.488 116.224 265.701 116.979 264.765 117.827H270.09L269.918 119H263.198V117.876C264.051 117.061 264.776 116.347 265.372 115.734C265.974 115.122 266.469 114.586 266.857 114.126C267.251 113.661 267.558 113.24 267.776 112.863C268.001 112.485 268.157 112.127 268.244 111.788C268.332 111.443 268.375 111.088 268.375 110.721C268.375 110.086 268.195 109.586 267.834 109.219C267.478 108.853 266.986 108.67 266.357 108.67C265.799 108.67 265.342 108.765 264.987 108.957C264.631 109.148 264.276 109.455 263.92 109.876L262.968 109.137C263.417 108.59 263.915 108.186 264.462 107.923C265.009 107.655 265.662 107.521 266.423 107.521ZM280.156 110.393C280.156 110.94 279.986 111.416 279.647 111.821C279.308 112.22 278.824 112.592 278.195 112.936C278.933 113.243 279.521 113.65 279.959 114.159C280.396 114.668 280.615 115.272 280.615 115.972C280.615 116.585 280.456 117.135 280.139 117.622C279.822 118.108 279.373 118.491 278.793 118.77C278.219 119.049 277.533 119.189 276.734 119.189C275.93 119.189 275.241 119.049 274.666 118.77C274.097 118.486 273.663 118.103 273.362 117.622C273.066 117.14 272.919 116.599 272.919 115.997C272.919 115.302 273.124 114.717 273.534 114.241C273.95 113.76 274.499 113.363 275.183 113.051C274.587 112.767 274.136 112.422 273.829 112.017C273.529 111.613 273.378 111.096 273.378 110.467C273.378 109.947 273.482 109.504 273.69 109.137C273.903 108.765 274.177 108.459 274.51 108.218C274.85 107.978 275.216 107.803 275.61 107.693C276.009 107.578 276.395 107.521 276.767 107.521C277.177 107.521 277.582 107.578 277.981 107.693C278.386 107.803 278.752 107.975 279.081 108.21C279.409 108.44 279.669 108.735 279.86 109.096C280.057 109.457 280.156 109.89 280.156 110.393ZM279.163 115.989C279.163 115.48 279.034 115.078 278.777 114.783C278.52 114.487 278.164 114.241 277.71 114.044C277.256 113.847 276.731 113.648 276.135 113.445C275.823 113.587 275.533 113.768 275.265 113.987C274.997 114.205 274.781 114.479 274.617 114.807C274.453 115.13 274.371 115.529 274.371 116.005C274.371 116.645 274.568 117.151 274.962 117.523C275.361 117.89 275.949 118.073 276.726 118.073C277.513 118.073 278.115 117.876 278.531 117.482C278.952 117.083 279.163 116.585 279.163 115.989ZM274.74 110.483C274.74 110.915 274.839 111.254 275.036 111.501C275.238 111.747 275.525 111.949 275.897 112.108C276.269 112.261 276.709 112.422 277.218 112.592C277.743 112.291 278.137 111.987 278.4 111.681C278.662 111.369 278.793 110.956 278.793 110.442C278.793 109.873 278.616 109.422 278.26 109.088C277.91 108.755 277.412 108.588 276.767 108.588C276.127 108.588 275.629 108.755 275.273 109.088C274.918 109.422 274.74 109.887 274.74 110.483ZM286.184 107.521L287.333 108.005L284.33 115.152H290.36V116.251H282.869V115.25L286.184 107.521ZM288.9 111.944V119H287.571L287.562 115.414L287.751 111.944H288.9ZM295.314 119.156L294.026 118.762L298.432 108.85H293.131V107.702H299.818V108.76L295.314 119.156Z" fill="white"/>
<path d="M52.72 170.768C52.768 170.768 52.8093 170.787 52.844 170.824L53.18 171.192C52.9453 171.469 52.6587 171.684 52.32 171.836C51.984 171.988 51.5787 172.064 51.104 172.064C50.688 172.064 50.3107 171.992 49.972 171.848C49.636 171.704 49.348 171.503 49.108 171.244C48.8707 170.985 48.6867 170.676 48.556 170.316C48.4253 169.956 48.36 169.56 48.36 169.128C48.36 168.696 48.428 168.3 48.564 167.94C48.7027 167.58 48.896 167.271 49.144 167.012C49.392 166.753 49.688 166.552 50.032 166.408C50.3787 166.264 50.7613 166.192 51.18 166.192C51.588 166.192 51.9507 166.259 52.268 166.392C52.5853 166.525 52.8613 166.703 53.096 166.924L52.816 167.32C52.7973 167.349 52.7733 167.373 52.744 167.392C52.7173 167.411 52.6813 167.42 52.636 167.42C52.5853 167.42 52.5253 167.395 52.456 167.344C52.3893 167.293 52.3 167.237 52.188 167.176C52.0787 167.112 51.9427 167.055 51.78 167.004C51.6173 166.953 51.4147 166.928 51.172 166.928C50.8867 166.928 50.6253 166.979 50.388 167.08C50.1507 167.179 49.9453 167.323 49.772 167.512C49.6013 167.699 49.468 167.929 49.372 168.204C49.2787 168.476 49.232 168.784 49.232 169.128C49.232 169.477 49.2813 169.788 49.38 170.06C49.4787 170.332 49.6147 170.563 49.788 170.752C49.9613 170.941 50.1653 171.085 50.4 171.184C50.6347 171.283 50.888 171.332 51.16 171.332C51.3253 171.332 51.4733 171.323 51.604 171.304C51.7373 171.283 51.8587 171.252 51.968 171.212C52.08 171.172 52.1853 171.121 52.284 171.06C52.3827 170.996 52.48 170.92 52.576 170.832C52.5973 170.813 52.62 170.799 52.644 170.788C52.668 170.775 52.6933 170.768 52.72 170.768ZM56.0601 170.196C55.7428 170.207 55.4735 170.232 55.2521 170.272C55.0308 170.309 54.8508 170.36 54.7121 170.424C54.5735 170.488 54.4735 170.564 54.4121 170.652C54.3508 170.737 54.3201 170.833 54.3201 170.94C54.3201 171.041 54.3361 171.129 54.3681 171.204C54.4028 171.276 54.4481 171.336 54.5041 171.384C54.5628 171.429 54.6308 171.463 54.7081 171.484C54.7855 171.505 54.8695 171.516 54.9601 171.516C55.0801 171.516 55.1895 171.504 55.2881 171.48C55.3895 171.456 55.4841 171.423 55.5721 171.38C55.6601 171.335 55.7441 171.28 55.8241 171.216C55.9041 171.152 55.9828 171.079 56.0601 170.996V170.196ZM53.7721 168.504C53.9988 168.288 54.2441 168.127 54.5081 168.02C54.7748 167.913 55.0668 167.86 55.3841 167.86C55.6161 167.86 55.8215 167.899 56.0001 167.976C56.1788 168.051 56.3295 168.156 56.4521 168.292C56.5748 168.428 56.6668 168.591 56.7281 168.78C56.7921 168.969 56.8241 169.179 56.8241 169.408V172H56.4761C56.3988 172 56.3401 171.988 56.3001 171.964C56.2601 171.937 56.2281 171.889 56.2041 171.82L56.1201 171.464C56.0161 171.56 55.9135 171.645 55.8121 171.72C55.7108 171.792 55.6041 171.855 55.4921 171.908C55.3828 171.959 55.2655 171.997 55.1401 172.024C55.0148 172.051 54.8761 172.064 54.7241 172.064C54.5641 172.064 54.4135 172.043 54.2721 172C54.1335 171.955 54.0121 171.887 53.9081 171.796C53.8041 171.705 53.7215 171.592 53.6601 171.456C53.6015 171.32 53.5721 171.161 53.5721 170.98C53.5721 170.82 53.6148 170.667 53.7001 170.52C53.7881 170.371 53.9295 170.237 54.1241 170.12C54.3215 170.003 54.5775 169.907 54.8921 169.832C55.2095 169.757 55.5988 169.715 56.0601 169.704V169.408C56.0601 169.101 55.9948 168.872 55.8641 168.72C55.7335 168.568 55.5415 168.492 55.2881 168.492C55.1175 168.492 54.9735 168.513 54.8561 168.556C54.7415 168.599 54.6415 168.647 54.5561 168.7C54.4735 168.751 54.4001 168.797 54.3361 168.84C54.2748 168.883 54.2108 168.904 54.1441 168.904C54.0908 168.904 54.0441 168.889 54.0041 168.86C53.9668 168.831 53.9361 168.796 53.9121 168.756L53.7721 168.504ZM58.6043 168.716C58.735 168.449 58.8923 168.24 59.0763 168.088C59.2603 167.936 59.4816 167.86 59.7403 167.86C59.8283 167.86 59.911 167.871 59.9883 167.892C60.0683 167.911 60.1376 167.94 60.1963 167.98L60.1443 168.568C60.1256 168.64 60.0816 168.676 60.0123 168.676C59.975 168.676 59.919 168.669 59.8443 168.656C59.7696 168.64 59.6896 168.632 59.6043 168.632C59.479 168.632 59.3683 168.651 59.2723 168.688C59.1763 168.723 59.0896 168.776 59.0123 168.848C58.9376 168.917 58.871 169.004 58.8123 169.108C58.7536 169.209 58.699 169.325 58.6483 169.456V172H57.8683V167.936H58.3163C58.4016 167.936 58.459 167.952 58.4883 167.984C58.5203 168.013 58.543 168.067 58.5563 168.144L58.6043 168.716ZM63.2774 168.92C63.1494 168.752 63.0107 168.635 62.8614 168.568C62.7147 168.501 62.5494 168.468 62.3654 168.468C62.008 168.468 61.7307 168.597 61.5334 168.856C61.3387 169.112 61.2414 169.487 61.2414 169.98C61.2414 170.239 61.2627 170.46 61.3054 170.644C61.3507 170.825 61.4147 170.975 61.4974 171.092C61.5827 171.207 61.6867 171.292 61.8094 171.348C61.932 171.401 62.0707 171.428 62.2254 171.428C62.452 171.428 62.648 171.377 62.8134 171.276C62.9787 171.175 63.1334 171.032 63.2774 170.848V168.92ZM64.0614 166.096V172H63.5894C63.48 172 63.412 171.948 63.3854 171.844L63.3174 171.376C63.144 171.581 62.9467 171.747 62.7254 171.872C62.5067 171.995 62.2534 172.056 61.9654 172.056C61.7334 172.056 61.5227 172.011 61.3334 171.92C61.1467 171.829 60.9867 171.697 60.8534 171.524C60.72 171.348 60.6174 171.131 60.5454 170.872C60.4734 170.613 60.4374 170.316 60.4374 169.98C60.4374 169.679 60.4774 169.399 60.5574 169.14C60.6374 168.881 60.7534 168.657 60.9054 168.468C61.0574 168.279 61.2414 168.131 61.4574 168.024C61.6734 167.915 61.9174 167.86 62.1894 167.86C62.4347 167.86 62.6427 167.9 62.8134 167.98C62.9867 168.06 63.1414 168.173 63.2774 168.32V166.096H64.0614ZM67.953 168.452C68.1237 168.279 68.3117 168.139 68.517 168.032C68.725 167.925 68.9637 167.872 69.233 167.872C69.457 167.872 69.653 167.909 69.821 167.984C69.9917 168.059 70.1343 168.164 70.249 168.3C70.3637 168.433 70.4503 168.595 70.509 168.784C70.5677 168.973 70.597 169.183 70.597 169.412V172H69.813V169.412C69.813 169.121 69.7463 168.896 69.613 168.736C69.4797 168.573 69.2757 168.492 69.001 168.492C68.801 168.492 68.613 168.54 68.437 168.636C68.2637 168.729 68.1023 168.857 67.953 169.02V172H67.173V166.096H67.953V168.452ZM73.3816 167.872C73.6802 167.872 73.9496 167.921 74.1896 168.02C74.4322 168.116 74.6376 168.256 74.8056 168.44C74.9762 168.621 75.1069 168.841 75.1976 169.1C75.2882 169.356 75.3336 169.644 75.3336 169.964C75.3336 170.284 75.2882 170.573 75.1976 170.832C75.1069 171.091 74.9762 171.311 74.8056 171.492C74.6376 171.673 74.4322 171.813 74.1896 171.912C73.9496 172.008 73.6802 172.056 73.3816 172.056C73.0802 172.056 72.8082 172.008 72.5656 171.912C72.3256 171.813 72.1202 171.673 71.9496 171.492C71.7789 171.311 71.6469 171.091 71.5536 170.832C71.4629 170.573 71.4176 170.284 71.4176 169.964C71.4176 169.644 71.4629 169.356 71.5536 169.1C71.6469 168.841 71.7789 168.621 71.9496 168.44C72.1202 168.256 72.3256 168.116 72.5656 168.02C72.8082 167.921 73.0802 167.872 73.3816 167.872ZM73.3816 171.448C73.7656 171.448 74.0522 171.319 74.2416 171.06C74.4309 170.801 74.5256 170.437 74.5256 169.968C74.5256 169.499 74.4309 169.135 74.2416 168.876C74.0522 168.615 73.7656 168.484 73.3816 168.484C72.9922 168.484 72.7016 168.615 72.5096 168.876C72.3202 169.135 72.2256 169.499 72.2256 169.968C72.2256 170.437 72.3202 170.801 72.5096 171.06C72.7016 171.319 72.9922 171.448 73.3816 171.448ZM77.0043 166.096V172H76.2203V166.096H77.0043ZM80.7383 168.92C80.6103 168.752 80.4716 168.635 80.3223 168.568C80.1756 168.501 80.0103 168.468 79.8263 168.468C79.469 168.468 79.1916 168.597 78.9943 168.856C78.7996 169.112 78.7023 169.487 78.7023 169.98C78.7023 170.239 78.7236 170.46 78.7663 170.644C78.8116 170.825 78.8756 170.975 78.9583 171.092C79.0436 171.207 79.1476 171.292 79.2703 171.348C79.393 171.401 79.5316 171.428 79.6863 171.428C79.913 171.428 80.109 171.377 80.2743 171.276C80.4396 171.175 80.5943 171.032 80.7383 170.848V168.92ZM81.5223 166.096V172H81.0503C80.941 172 80.873 171.948 80.8463 171.844L80.7783 171.376C80.605 171.581 80.4076 171.747 80.1863 171.872C79.9676 171.995 79.7143 172.056 79.4263 172.056C79.1943 172.056 78.9836 172.011 78.7943 171.92C78.6076 171.829 78.4476 171.697 78.3143 171.524C78.181 171.348 78.0783 171.131 78.0063 170.872C77.9343 170.613 77.8983 170.316 77.8983 169.98C77.8983 169.679 77.9383 169.399 78.0183 169.14C78.0983 168.881 78.2143 168.657 78.3663 168.468C78.5183 168.279 78.7023 168.131 78.9183 168.024C79.1343 167.915 79.3783 167.86 79.6503 167.86C79.8956 167.86 80.1036 167.9 80.2743 167.98C80.4476 168.06 80.6023 168.173 80.7383 168.32V166.096H81.5223ZM85.3025 169.516C85.3025 169.361 85.2798 169.219 85.2345 169.088C85.1918 168.957 85.1278 168.844 85.0425 168.748C84.9572 168.652 84.8532 168.577 84.7305 168.524C84.6078 168.471 84.4665 168.444 84.3065 168.444C83.9785 168.444 83.7198 168.539 83.5305 168.728C83.3438 168.917 83.2252 169.18 83.1745 169.516H85.3025ZM85.9465 171.42C85.8505 171.532 85.7398 171.629 85.6145 171.712C85.4892 171.792 85.3558 171.857 85.2145 171.908C85.0732 171.959 84.9265 171.996 84.7745 172.02C84.6252 172.044 84.4772 172.056 84.3305 172.056C84.0505 172.056 83.7905 172.009 83.5505 171.916C83.3132 171.82 83.1065 171.681 82.9305 171.5C82.7572 171.316 82.6212 171.089 82.5225 170.82C82.4265 170.548 82.3785 170.236 82.3785 169.884C82.3785 169.601 82.4225 169.339 82.5105 169.096C82.5985 168.851 82.7238 168.637 82.8865 168.456C83.0518 168.275 83.2532 168.132 83.4905 168.028C83.7278 167.924 83.9945 167.872 84.2905 167.872C84.5385 167.872 84.7665 167.913 84.9745 167.996C85.1852 168.076 85.3665 168.193 85.5185 168.348C85.6705 168.503 85.7892 168.693 85.8745 168.92C85.9625 169.147 86.0065 169.405 86.0065 169.696C86.0065 169.816 85.9932 169.897 85.9665 169.94C85.9398 169.98 85.8905 170 85.8185 170H83.1545C83.1625 170.243 83.1972 170.455 83.2585 170.636C83.3198 170.815 83.4038 170.964 83.5105 171.084C83.6198 171.204 83.7492 171.293 83.8985 171.352C84.0478 171.411 84.2145 171.44 84.3985 171.44C84.5718 171.44 84.7212 171.42 84.8465 171.38C84.9745 171.34 85.0838 171.297 85.1745 171.252C85.2678 171.204 85.3452 171.16 85.4065 171.12C85.4705 171.08 85.5265 171.06 85.5745 171.06C85.6385 171.06 85.6878 171.084 85.7225 171.132L85.9465 171.42ZM87.5809 168.716C87.7115 168.449 87.8689 168.24 88.0529 168.088C88.2369 167.936 88.4582 167.86 88.7169 167.86C88.8049 167.86 88.8875 167.871 88.9649 167.892C89.0449 167.911 89.1142 167.94 89.1729 167.98L89.1209 168.568C89.1022 168.64 89.0582 168.676 88.9889 168.676C88.9515 168.676 88.8955 168.669 88.8209 168.656C88.7462 168.64 88.6662 168.632 88.5809 168.632C88.4555 168.632 88.3449 168.651 88.2489 168.688C88.1529 168.723 88.0662 168.776 87.9889 168.848C87.9142 168.917 87.8475 169.004 87.7889 169.108C87.7302 169.209 87.6755 169.325 87.6249 169.456V172H86.8449V167.936H87.2929C87.3782 167.936 87.4355 167.952 87.4649 167.984C87.4969 168.013 87.5195 168.067 87.5329 168.144L87.5809 168.716Z" fill="white"/>
<path d="M152.272 171.308L152.268 172H148.708V166.256H152.268V166.948H149.564V168.768H151.74V169.436H149.564V171.308H152.272ZM156.573 172H155.821C155.76 172 155.711 171.984 155.673 171.952C155.639 171.917 155.611 171.881 155.589 171.844L154.609 170.296C154.596 170.336 154.583 170.375 154.569 170.412C154.556 170.449 154.539 170.484 154.517 170.516L153.617 171.844C153.591 171.881 153.56 171.917 153.525 171.952C153.491 171.984 153.445 172 153.389 172H152.693L154.109 169.908L152.749 167.936H153.501C153.563 167.936 153.607 167.945 153.633 167.964C153.663 167.983 153.688 168.011 153.709 168.048L154.673 169.532C154.687 169.492 154.701 169.453 154.717 169.416C154.733 169.376 154.755 169.335 154.781 169.292L155.609 168.064C155.657 167.979 155.721 167.936 155.801 167.936H156.517L155.157 169.872L156.573 172ZM157.976 171C158.104 171.168 158.242 171.285 158.388 171.352C158.538 171.419 158.704 171.452 158.888 171.452C159.246 171.452 159.522 171.324 159.716 171.068C159.914 170.809 160.012 170.433 160.012 169.94C160.012 169.681 159.99 169.461 159.944 169.28C159.902 169.096 159.838 168.947 159.752 168.832C159.67 168.715 159.567 168.629 159.444 168.576C159.322 168.52 159.183 168.492 159.028 168.492C158.802 168.492 158.604 168.543 158.436 168.644C158.271 168.745 158.118 168.889 157.976 169.076V171ZM157.936 168.544C158.022 168.443 158.112 168.351 158.208 168.268C158.307 168.183 158.412 168.111 158.524 168.052C158.636 167.991 158.755 167.944 158.88 167.912C159.008 167.877 159.144 167.86 159.288 167.86C159.52 167.86 159.73 167.905 159.916 167.996C160.106 168.087 160.267 168.22 160.4 168.396C160.534 168.572 160.636 168.789 160.708 169.048C160.783 169.307 160.82 169.604 160.82 169.94C160.82 170.241 160.779 170.521 160.696 170.78C160.616 171.036 160.5 171.259 160.348 171.448C160.199 171.637 160.015 171.787 159.796 171.896C159.58 172.003 159.336 172.056 159.064 172.056C158.822 172.056 158.614 172.016 158.44 171.936C158.267 171.856 158.112 171.744 157.976 171.6V173.364H157.196V167.936H157.664C157.774 167.936 157.842 167.988 157.868 168.092L157.936 168.544ZM162.512 167.936V172H161.732V167.936H162.512ZM162.66 166.68C162.66 166.752 162.646 166.821 162.616 166.888C162.587 166.952 162.547 167.009 162.496 167.06C162.448 167.108 162.391 167.147 162.324 167.176C162.258 167.203 162.188 167.216 162.116 167.216C162.044 167.216 161.976 167.203 161.912 167.176C161.848 167.147 161.791 167.108 161.74 167.06C161.692 167.009 161.654 166.952 161.624 166.888C161.598 166.821 161.584 166.752 161.584 166.68C161.584 166.605 161.598 166.536 161.624 166.472C161.654 166.405 161.692 166.348 161.74 166.3C161.791 166.249 161.848 166.211 161.912 166.184C161.976 166.155 162.044 166.14 162.116 166.14C162.188 166.14 162.258 166.155 162.324 166.184C162.391 166.211 162.448 166.249 162.496 166.3C162.547 166.348 162.587 166.405 162.616 166.472C162.646 166.536 162.66 166.605 162.66 166.68ZM164.378 168.716C164.508 168.449 164.666 168.24 164.85 168.088C165.034 167.936 165.255 167.86 165.514 167.86C165.602 167.86 165.684 167.871 165.762 167.892C165.842 167.911 165.911 167.94 165.97 167.98L165.918 168.568C165.899 168.64 165.855 168.676 165.786 168.676C165.748 168.676 165.692 168.669 165.618 168.656C165.543 168.64 165.463 168.632 165.378 168.632C165.252 168.632 165.142 168.651 165.046 168.688C164.95 168.723 164.863 168.776 164.786 168.848C164.711 168.917 164.644 169.004 164.586 169.108C164.527 169.209 164.472 169.325 164.422 169.456V172H163.642V167.936H164.09C164.175 167.936 164.232 167.952 164.262 167.984C164.294 168.013 164.316 168.067 164.33 168.144L164.378 168.716ZM168.693 170.196C168.376 170.207 168.106 170.232 167.885 170.272C167.664 170.309 167.484 170.36 167.345 170.424C167.206 170.488 167.106 170.564 167.045 170.652C166.984 170.737 166.953 170.833 166.953 170.94C166.953 171.041 166.969 171.129 167.001 171.204C167.036 171.276 167.081 171.336 167.137 171.384C167.196 171.429 167.264 171.463 167.341 171.484C167.418 171.505 167.502 171.516 167.593 171.516C167.713 171.516 167.822 171.504 167.921 171.48C168.022 171.456 168.117 171.423 168.205 171.38C168.293 171.335 168.377 171.28 168.457 171.216C168.537 171.152 168.616 171.079 168.693 170.996V170.196ZM166.405 168.504C166.632 168.288 166.877 168.127 167.141 168.02C167.408 167.913 167.7 167.86 168.017 167.86C168.249 167.86 168.454 167.899 168.633 167.976C168.812 168.051 168.962 168.156 169.085 168.292C169.208 168.428 169.3 168.591 169.361 168.78C169.425 168.969 169.457 169.179 169.457 169.408V172H169.109C169.032 172 168.973 171.988 168.933 171.964C168.893 171.937 168.861 171.889 168.837 171.82L168.753 171.464C168.649 171.56 168.546 171.645 168.445 171.72C168.344 171.792 168.237 171.855 168.125 171.908C168.016 171.959 167.898 171.997 167.773 172.024C167.648 172.051 167.509 172.064 167.357 172.064C167.197 172.064 167.046 172.043 166.905 172C166.766 171.955 166.645 171.887 166.541 171.796C166.437 171.705 166.354 171.592 166.293 171.456C166.234 171.32 166.205 171.161 166.205 170.98C166.205 170.82 166.248 170.667 166.333 170.52C166.421 170.371 166.562 170.237 166.757 170.12C166.954 170.003 167.21 169.907 167.525 169.832C167.842 169.757 168.232 169.715 168.693 169.704V169.408C168.693 169.101 168.628 168.872 168.497 168.72C168.366 168.568 168.174 168.492 167.921 168.492C167.75 168.492 167.606 168.513 167.489 168.556C167.374 168.599 167.274 168.647 167.189 168.7C167.106 168.751 167.033 168.797 166.969 168.84C166.908 168.883 166.844 168.904 166.777 168.904C166.724 168.904 166.677 168.889 166.637 168.86C166.6 168.831 166.569 168.796 166.545 168.756L166.405 168.504ZM174.298 172H173.514V168.568H171.474V170.948C171.474 171.108 171.513 171.228 171.59 171.308C171.67 171.385 171.772 171.424 171.894 171.424C171.966 171.424 172.028 171.415 172.078 171.396C172.132 171.377 172.177 171.357 172.214 171.336C172.252 171.312 172.284 171.291 172.31 171.272C172.337 171.253 172.361 171.244 172.382 171.244C172.409 171.244 172.429 171.251 172.442 171.264C172.458 171.275 172.474 171.293 172.49 171.32L172.722 171.696C172.594 171.813 172.442 171.904 172.266 171.968C172.09 172.032 171.908 172.064 171.718 172.064C171.39 172.064 171.137 171.972 170.958 171.788C170.782 171.604 170.694 171.341 170.694 171V168.568H170.222C170.177 168.568 170.138 168.555 170.106 168.528C170.077 168.499 170.062 168.456 170.062 168.4V168.084L170.726 167.992L170.898 166.78C170.909 166.735 170.929 166.7 170.958 166.676C170.99 166.649 171.03 166.636 171.078 166.636H171.474V168H174.298V172ZM174.474 166.656C174.474 166.728 174.46 166.797 174.43 166.864C174.401 166.928 174.361 166.985 174.31 167.036C174.262 167.084 174.205 167.123 174.138 167.152C174.072 167.179 174.002 167.192 173.93 167.192C173.858 167.192 173.79 167.179 173.726 167.152C173.662 167.123 173.605 167.084 173.554 167.036C173.506 166.985 173.468 166.928 173.438 166.864C173.412 166.797 173.398 166.728 173.398 166.656C173.398 166.581 173.412 166.511 173.438 166.444C173.468 166.377 173.506 166.32 173.554 166.272C173.605 166.221 173.662 166.183 173.726 166.156C173.79 166.127 173.858 166.112 173.93 166.112C174.002 166.112 174.072 166.127 174.138 166.156C174.205 166.183 174.262 166.221 174.31 166.272C174.361 166.32 174.401 166.377 174.43 166.444C174.46 166.511 174.474 166.581 174.474 166.656ZM177.163 167.872C177.461 167.872 177.731 167.921 177.971 168.02C178.213 168.116 178.419 168.256 178.587 168.44C178.757 168.621 178.888 168.841 178.979 169.1C179.069 169.356 179.115 169.644 179.115 169.964C179.115 170.284 179.069 170.573 178.979 170.832C178.888 171.091 178.757 171.311 178.587 171.492C178.419 171.673 178.213 171.813 177.971 171.912C177.731 172.008 177.461 172.056 177.163 172.056C176.861 172.056 176.589 172.008 176.347 171.912C176.107 171.813 175.901 171.673 175.731 171.492C175.56 171.311 175.428 171.091 175.335 170.832C175.244 170.573 175.199 170.284 175.199 169.964C175.199 169.644 175.244 169.356 175.335 169.1C175.428 168.841 175.56 168.621 175.731 168.44C175.901 168.256 176.107 168.116 176.347 168.02C176.589 167.921 176.861 167.872 177.163 167.872ZM177.163 171.448C177.547 171.448 177.833 171.319 178.023 171.06C178.212 170.801 178.307 170.437 178.307 169.968C178.307 169.499 178.212 169.135 178.023 168.876C177.833 168.615 177.547 168.484 177.163 168.484C176.773 168.484 176.483 168.615 176.291 168.876C176.101 169.135 176.007 169.499 176.007 169.968C176.007 170.437 176.101 170.801 176.291 171.06C176.483 171.319 176.773 171.448 177.163 171.448ZM180.718 168.5C180.806 168.407 180.898 168.321 180.994 168.244C181.09 168.167 181.191 168.101 181.298 168.048C181.407 167.992 181.523 167.949 181.646 167.92C181.771 167.888 181.904 167.872 182.046 167.872C182.27 167.872 182.466 167.909 182.634 167.984C182.804 168.059 182.947 168.164 183.062 168.3C183.176 168.433 183.263 168.595 183.322 168.784C183.38 168.973 183.41 169.183 183.41 169.412V172H182.626V169.412C182.626 169.121 182.559 168.896 182.426 168.736C182.292 168.573 182.088 168.492 181.814 168.492C181.614 168.492 181.426 168.54 181.25 168.636C181.076 168.729 180.915 168.857 180.766 169.02V172H179.986V167.936H180.454C180.563 167.936 180.631 167.988 180.658 168.092L180.718 168.5ZM189.106 168.92C188.978 168.752 188.839 168.635 188.69 168.568C188.543 168.501 188.378 168.468 188.194 168.468C187.836 168.468 187.559 168.597 187.362 168.856C187.167 169.112 187.07 169.487 187.07 169.98C187.07 170.239 187.091 170.46 187.134 170.644C187.179 170.825 187.243 170.975 187.326 171.092C187.411 171.207 187.515 171.292 187.638 171.348C187.76 171.401 187.899 171.428 188.054 171.428C188.28 171.428 188.476 171.377 188.642 171.276C188.807 171.175 188.962 171.032 189.106 170.848V168.92ZM189.89 166.096V172H189.418C189.308 172 189.24 171.948 189.214 171.844L189.146 171.376C188.972 171.581 188.775 171.747 188.554 171.872C188.335 171.995 188.082 172.056 187.794 172.056C187.562 172.056 187.351 172.011 187.162 171.92C186.975 171.829 186.815 171.697 186.682 171.524C186.548 171.348 186.446 171.131 186.374 170.872C186.302 170.613 186.266 170.316 186.266 169.98C186.266 169.679 186.306 169.399 186.386 169.14C186.466 168.881 186.582 168.657 186.734 168.468C186.886 168.279 187.07 168.131 187.286 168.024C187.502 167.915 187.746 167.86 188.018 167.86C188.263 167.86 188.471 167.9 188.642 167.98C188.815 168.06 188.97 168.173 189.106 168.32V166.096H189.89ZM193.162 170.196C192.844 170.207 192.575 170.232 192.354 170.272C192.132 170.309 191.952 170.36 191.814 170.424C191.675 170.488 191.575 170.564 191.514 170.652C191.452 170.737 191.422 170.833 191.422 170.94C191.422 171.041 191.438 171.129 191.47 171.204C191.504 171.276 191.55 171.336 191.606 171.384C191.664 171.429 191.732 171.463 191.81 171.484C191.887 171.505 191.971 171.516 192.062 171.516C192.182 171.516 192.291 171.504 192.39 171.48C192.491 171.456 192.586 171.423 192.674 171.38C192.762 171.335 192.846 171.28 192.926 171.216C193.006 171.152 193.084 171.079 193.162 170.996V170.196ZM190.874 168.504C191.1 168.288 191.346 168.127 191.61 168.02C191.876 167.913 192.168 167.86 192.486 167.86C192.718 167.86 192.923 167.899 193.102 167.976C193.28 168.051 193.431 168.156 193.554 168.292C193.676 168.428 193.768 168.591 193.83 168.78C193.894 168.969 193.926 169.179 193.926 169.408V172H193.578C193.5 172 193.442 171.988 193.402 171.964C193.362 171.937 193.33 171.889 193.306 171.82L193.222 171.464C193.118 171.56 193.015 171.645 192.914 171.72C192.812 171.792 192.706 171.855 192.594 171.908C192.484 171.959 192.367 171.997 192.242 172.024C192.116 172.051 191.978 172.064 191.826 172.064C191.666 172.064 191.515 172.043 191.374 172C191.235 171.955 191.114 171.887 191.01 171.796C190.906 171.705 190.823 171.592 190.762 171.456C190.703 171.32 190.674 171.161 190.674 170.98C190.674 170.82 190.716 170.667 190.802 170.52C190.89 170.371 191.031 170.237 191.226 170.12C191.423 170.003 191.679 169.907 191.994 169.832C192.311 169.757 192.7 169.715 193.162 169.704V169.408C193.162 169.101 193.096 168.872 192.966 168.72C192.835 168.568 192.643 168.492 192.39 168.492C192.219 168.492 192.075 168.513 191.958 168.556C191.843 168.599 191.743 168.647 191.658 168.7C191.575 168.751 191.502 168.797 191.438 168.84C191.376 168.883 191.312 168.904 191.246 168.904C191.192 168.904 191.146 168.889 191.106 168.86C191.068 168.831 191.038 168.796 191.014 168.756L190.874 168.504ZM196.187 172.064C195.859 172.064 195.606 171.972 195.427 171.788C195.251 171.604 195.163 171.341 195.163 171V168.568H194.691C194.646 168.568 194.607 168.555 194.575 168.528C194.546 168.499 194.531 168.456 194.531 168.4V168.084L195.191 167.992L195.367 166.78C195.378 166.735 195.398 166.7 195.427 166.676C195.459 166.649 195.499 166.636 195.547 166.636H195.943V168H197.095V168.568H195.943V170.948C195.943 171.108 195.982 171.228 196.059 171.308C196.139 171.385 196.241 171.424 196.363 171.424C196.435 171.424 196.497 171.415 196.547 171.396C196.601 171.377 196.646 171.357 196.683 171.336C196.721 171.312 196.753 171.291 196.779 171.272C196.806 171.253 196.83 171.244 196.851 171.244C196.878 171.244 196.898 171.251 196.911 171.264C196.927 171.275 196.943 171.293 196.959 171.32L197.191 171.696C197.063 171.813 196.911 171.904 196.735 171.968C196.559 172.032 196.377 172.064 196.187 172.064ZM200.482 169.516C200.482 169.361 200.46 169.219 200.414 169.088C200.372 168.957 200.308 168.844 200.222 168.748C200.137 168.652 200.033 168.577 199.91 168.524C199.788 168.471 199.646 168.444 199.486 168.444C199.158 168.444 198.9 168.539 198.71 168.728C198.524 168.917 198.405 169.18 198.354 169.516H200.482ZM201.126 171.42C201.03 171.532 200.92 171.629 200.794 171.712C200.669 171.792 200.536 171.857 200.394 171.908C200.253 171.959 200.106 171.996 199.954 172.02C199.805 172.044 199.657 172.056 199.51 172.056C199.23 172.056 198.97 172.009 198.73 171.916C198.493 171.82 198.286 171.681 198.11 171.5C197.937 171.316 197.801 171.089 197.702 170.82C197.606 170.548 197.558 170.236 197.558 169.884C197.558 169.601 197.602 169.339 197.69 169.096C197.778 168.851 197.904 168.637 198.066 168.456C198.232 168.275 198.433 168.132 198.67 168.028C198.908 167.924 199.174 167.872 199.47 167.872C199.718 167.872 199.946 167.913 200.154 167.996C200.365 168.076 200.546 168.193 200.698 168.348C200.85 168.503 200.969 168.693 201.054 168.92C201.142 169.147 201.186 169.405 201.186 169.696C201.186 169.816 201.173 169.897 201.146 169.94C201.12 169.98 201.07 170 200.998 170H198.334C198.342 170.243 198.377 170.455 198.438 170.636C198.5 170.815 198.584 170.964 198.69 171.084C198.8 171.204 198.929 171.293 199.078 171.352C199.228 171.411 199.394 171.44 199.578 171.44C199.752 171.44 199.901 171.42 200.026 171.38C200.154 171.34 200.264 171.297 200.354 171.252C200.448 171.204 200.525 171.16 200.586 171.12C200.65 171.08 200.706 171.06 200.754 171.06C200.818 171.06 200.868 171.084 200.902 171.132L201.126 171.42Z" fill="white"/>
<path d="M58.122 179.384V188H57.006V181.868C57.006 181.776 57.008 181.678 57.012 181.574C57.02 181.47 57.028 181.364 57.036 181.256L54.168 186.518C54.068 186.714 53.914 186.812 53.706 186.812H53.526C53.318 186.812 53.166 186.714 53.07 186.518L50.148 181.238C50.172 181.462 50.184 181.672 50.184 181.868V188H49.062V179.384H50.01C50.122 179.384 50.208 179.396 50.268 179.42C50.332 179.44 50.392 179.5 50.448 179.6L53.328 184.76C53.384 184.864 53.436 184.974 53.484 185.09C53.532 185.206 53.578 185.322 53.622 185.438C53.706 185.202 53.804 184.974 53.916 184.754L56.742 179.6C56.794 179.5 56.85 179.44 56.91 179.42C56.974 179.396 57.062 179.384 57.174 179.384H58.122ZM61.1437 181.904V188H59.9737V181.904H61.1437ZM61.3657 180.02C61.3657 180.128 61.3437 180.232 61.2997 180.332C61.2557 180.428 61.1957 180.514 61.1197 180.59C61.0477 180.662 60.9617 180.72 60.8617 180.764C60.7617 180.804 60.6577 180.824 60.5497 180.824C60.4417 180.824 60.3397 180.804 60.2437 180.764C60.1477 180.72 60.0617 180.662 59.9857 180.59C59.9137 180.514 59.8557 180.428 59.8117 180.332C59.7717 180.232 59.7517 180.128 59.7517 180.02C59.7517 179.908 59.7717 179.804 59.8117 179.708C59.8557 179.608 59.9137 179.522 59.9857 179.45C60.0617 179.374 60.1477 179.316 60.2437 179.276C60.3397 179.232 60.4417 179.21 60.5497 179.21C60.6577 179.21 60.7617 179.232 60.8617 179.276C60.9617 179.316 61.0477 179.374 61.1197 179.45C61.1957 179.522 61.2557 179.608 61.2997 179.708C61.3437 179.804 61.3657 179.908 61.3657 180.02ZM64.0076 179.144V184.322H64.2836C64.3676 184.322 64.4376 184.31 64.4936 184.286C64.5496 184.262 64.6076 184.214 64.6676 184.142L66.4916 182.132C66.5476 182.056 66.6096 182 66.6776 181.964C66.7456 181.924 66.8316 181.904 66.9356 181.904H68.0036L65.8496 184.262C65.7336 184.41 65.6096 184.524 65.4776 184.604C65.5536 184.656 65.6196 184.716 65.6756 184.784C65.7356 184.852 65.7936 184.926 65.8496 185.006L68.1416 188H67.0916C66.9956 188 66.9116 187.984 66.8396 187.952C66.7716 187.92 66.7096 187.862 66.6536 187.778L64.7696 185.33C64.7096 185.238 64.6496 185.18 64.5896 185.156C64.5296 185.128 64.4396 185.114 64.3196 185.114H64.0076V188H62.8376V179.144H64.0076ZM72.7116 184.274C72.7116 184.042 72.6776 183.828 72.6096 183.632C72.5456 183.436 72.4496 183.266 72.3216 183.122C72.1936 182.978 72.0376 182.866 71.8536 182.786C71.6696 182.706 71.4576 182.666 71.2176 182.666C70.7256 182.666 70.3376 182.808 70.0536 183.092C69.7736 183.376 69.5956 183.77 69.5196 184.274H72.7116ZM73.6776 187.13C73.5336 187.298 73.3676 187.444 73.1796 187.568C72.9916 187.688 72.7916 187.786 72.5796 187.862C72.3676 187.938 72.1476 187.994 71.9196 188.03C71.6956 188.066 71.4736 188.084 71.2536 188.084C70.8336 188.084 70.4436 188.014 70.0836 187.874C69.7276 187.73 69.4176 187.522 69.1536 187.25C68.8936 186.974 68.6896 186.634 68.5416 186.23C68.3976 185.822 68.3256 185.354 68.3256 184.826C68.3256 184.402 68.3916 184.008 68.5236 183.644C68.6556 183.276 68.8436 182.956 69.0876 182.684C69.3356 182.412 69.6376 182.198 69.9936 182.042C70.3496 181.886 70.7496 181.808 71.1936 181.808C71.5656 181.808 71.9076 181.87 72.2196 181.994C72.5356 182.114 72.8076 182.29 73.0356 182.522C73.2636 182.754 73.4416 183.04 73.5696 183.38C73.7016 183.72 73.7676 184.108 73.7676 184.544C73.7676 184.724 73.7476 184.846 73.7076 184.91C73.6676 184.97 73.5936 185 73.4856 185H69.4896C69.5016 185.364 69.5536 185.682 69.6456 185.954C69.7376 186.222 69.8636 186.446 70.0236 186.626C70.1876 186.806 70.3816 186.94 70.6056 187.028C70.8296 187.116 71.0796 187.16 71.3556 187.16C71.6156 187.16 71.8396 187.13 72.0276 187.07C72.2196 187.01 72.3836 186.946 72.5196 186.878C72.6596 186.806 72.7756 186.74 72.8676 186.68C72.9636 186.62 73.0476 186.59 73.1196 186.59C73.2156 186.59 73.2896 186.626 73.3416 186.698L73.6776 187.13ZM82.7583 180.788C82.7183 180.856 82.6763 180.906 82.6323 180.938C82.5883 180.97 82.5323 180.986 82.4643 180.986C82.3923 180.986 82.3103 180.954 82.2183 180.89C82.1263 180.822 82.0103 180.748 81.8703 180.668C81.7343 180.584 81.5703 180.51 81.3783 180.446C81.1863 180.378 80.9563 180.344 80.6883 180.344C80.4363 180.344 80.2143 180.378 80.0223 180.446C79.8343 180.51 79.6763 180.6 79.5483 180.716C79.4203 180.828 79.3223 180.962 79.2543 181.118C79.1903 181.27 79.1583 181.436 79.1583 181.616C79.1583 181.848 79.2163 182.04 79.3323 182.192C79.4523 182.344 79.6083 182.474 79.8003 182.582C79.9923 182.69 80.2103 182.784 80.4543 182.864C80.6983 182.944 80.9483 183.028 81.2043 183.116C81.4603 183.2 81.7103 183.298 81.9543 183.41C82.1983 183.522 82.4163 183.664 82.6083 183.836C82.8003 184.004 82.9543 184.212 83.0703 184.46C83.1903 184.704 83.2503 185.004 83.2503 185.36C83.2503 185.74 83.1843 186.096 83.0523 186.428C82.9243 186.76 82.7363 187.05 82.4883 187.298C82.2403 187.546 81.9343 187.742 81.5703 187.886C81.2103 188.026 80.8003 188.096 80.3403 188.096C80.0643 188.096 79.7963 188.068 79.5363 188.012C79.2763 187.96 79.0303 187.886 78.7983 187.79C78.5663 187.69 78.3483 187.572 78.1443 187.436C77.9443 187.296 77.7643 187.14 77.6043 186.968L77.9703 186.356C78.0063 186.308 78.0483 186.268 78.0963 186.236C78.1483 186.204 78.2063 186.188 78.2703 186.188C78.3543 186.188 78.4503 186.232 78.5583 186.32C78.6703 186.408 78.8063 186.506 78.9663 186.614C79.1303 186.718 79.3243 186.814 79.5483 186.902C79.7763 186.99 80.0523 187.034 80.3763 187.034C80.6403 187.034 80.8763 187 81.0843 186.932C81.2923 186.86 81.4663 186.76 81.6063 186.632C81.7503 186.5 81.8603 186.342 81.9363 186.158C82.0123 185.974 82.0503 185.77 82.0503 185.546C82.0503 185.294 81.9923 185.088 81.8763 184.928C81.7603 184.768 81.6063 184.634 81.4143 184.526C81.2223 184.418 81.0043 184.326 80.7603 184.25C80.5163 184.174 80.2663 184.096 80.0103 184.016C79.7543 183.932 79.5043 183.836 79.2603 183.728C79.0163 183.62 78.7983 183.48 78.6063 183.308C78.4143 183.132 78.2603 182.914 78.1443 182.654C78.0283 182.39 77.9703 182.066 77.9703 181.682C77.9703 181.374 78.0303 181.076 78.1503 180.788C78.2703 180.5 78.4443 180.246 78.6723 180.026C78.9043 179.802 79.1883 179.624 79.5243 179.492C79.8603 179.356 80.2443 179.288 80.6763 179.288C81.1603 179.288 81.6043 179.366 82.0083 179.522C82.4163 179.674 82.7703 179.894 83.0703 180.182L82.7583 180.788ZM84.4587 188V181.904H85.1607C85.3247 181.904 85.4267 181.982 85.4667 182.138L85.5507 182.72C85.7747 182.452 86.0227 182.234 86.2947 182.066C86.5707 181.894 86.8927 181.808 87.2607 181.808C87.6647 181.808 87.9927 181.92 88.2447 182.144C88.4967 182.364 88.6807 182.664 88.7967 183.044C88.8847 182.828 88.9987 182.642 89.1387 182.486C89.2787 182.33 89.4347 182.202 89.6067 182.102C89.7787 182.002 89.9607 181.928 90.1527 181.88C90.3487 181.832 90.5467 181.808 90.7467 181.808C91.0707 181.808 91.3587 181.86 91.6107 181.964C91.8667 182.064 92.0827 182.212 92.2587 182.408C92.4347 182.604 92.5687 182.846 92.6607 183.134C92.7527 183.422 92.7987 183.75 92.7987 184.118V188H91.6227V184.118C91.6227 183.662 91.5227 183.318 91.3227 183.086C91.1267 182.854 90.8387 182.738 90.4587 182.738C90.2907 182.738 90.1307 182.768 89.9787 182.828C89.8267 182.884 89.6927 182.97 89.5767 183.086C89.4647 183.202 89.3747 183.346 89.3067 183.518C89.2427 183.69 89.2107 183.89 89.2107 184.118V188H88.0347V184.118C88.0347 183.646 87.9407 183.298 87.7527 183.074C87.5647 182.85 87.2887 182.738 86.9247 182.738C86.6727 182.738 86.4387 182.804 86.2227 182.936C86.0067 183.068 85.8087 183.248 85.6287 183.476V188H84.4587ZM95.5968 181.904V188H94.4268V181.904H95.5968ZM95.8188 180.02C95.8188 180.128 95.7968 180.232 95.7528 180.332C95.7088 180.428 95.6488 180.514 95.5728 180.59C95.5008 180.662 95.4148 180.72 95.3148 180.764C95.2148 180.804 95.1108 180.824 95.0028 180.824C94.8948 180.824 94.7928 180.804 94.6968 180.764C94.6008 180.72 94.5148 180.662 94.4388 180.59C94.3668 180.514 94.3088 180.428 94.2648 180.332C94.2248 180.232 94.2048 180.128 94.2048 180.02C94.2048 179.908 94.2248 179.804 94.2648 179.708C94.3088 179.608 94.3668 179.522 94.4388 179.45C94.5148 179.374 94.6008 179.316 94.6968 179.276C94.7928 179.232 94.8948 179.21 95.0028 179.21C95.1108 179.21 95.2148 179.232 95.3148 179.276C95.4148 179.316 95.5008 179.374 95.5728 179.45C95.6488 179.522 95.7088 179.608 95.7528 179.708C95.7968 179.804 95.8188 179.908 95.8188 180.02ZM99.1988 188.096C98.7068 188.096 98.3268 187.958 98.0588 187.682C97.7948 187.406 97.6628 187.012 97.6628 186.5V182.852H96.9548C96.8868 182.852 96.8288 182.832 96.7808 182.792C96.7368 182.748 96.7148 182.684 96.7148 182.6V182.126L97.7048 181.988L97.9688 180.17C97.9848 180.102 98.0148 180.05 98.0588 180.014C98.1068 179.974 98.1668 179.954 98.2388 179.954H98.8328V182H100.561V182.852H98.8328V186.422C98.8328 186.662 98.8908 186.842 99.0068 186.962C99.1268 187.078 99.2788 187.136 99.4628 187.136C99.5708 187.136 99.6628 187.122 99.7388 187.094C99.8188 187.066 99.8868 187.036 99.9428 187.004C99.9988 186.968 100.047 186.936 100.087 186.908C100.127 186.88 100.163 186.866 100.195 186.866C100.235 186.866 100.265 186.876 100.285 186.896C100.309 186.912 100.333 186.94 100.357 186.98L100.705 187.544C100.513 187.72 100.285 187.856 100.021 187.952C99.7568 188.048 99.4828 188.096 99.1988 188.096ZM102.808 182.678C103.064 182.418 103.346 182.208 103.654 182.048C103.966 181.888 104.324 181.808 104.728 181.808C105.064 181.808 105.358 181.864 105.61 181.976C105.866 182.088 106.08 182.246 106.252 182.45C106.424 182.65 106.554 182.892 106.642 183.176C106.73 183.46 106.774 183.774 106.774 184.118V188H105.598V184.118C105.598 183.682 105.498 183.344 105.298 183.104C105.098 182.86 104.792 182.738 104.38 182.738C104.08 182.738 103.798 182.81 103.534 182.954C103.274 183.094 103.032 183.286 102.808 183.53V188H101.638V179.144H102.808V182.678Z" fill="white"/>
<path d="M154.612 183.692C154.612 184.444 154.53 185.096 154.366 185.648C154.206 186.2 153.984 186.658 153.7 187.022C153.42 187.382 153.088 187.65 152.704 187.826C152.324 188.002 151.914 188.09 151.474 188.09C151.034 188.09 150.622 188.002 150.238 187.826C149.858 187.65 149.528 187.382 149.248 187.022C148.968 186.658 148.748 186.2 148.588 185.648C148.428 185.096 148.348 184.444 148.348 183.692C148.348 182.94 148.428 182.288 148.588 181.736C148.748 181.18 148.968 180.722 149.248 180.362C149.528 179.998 149.858 179.728 150.238 179.552C150.622 179.376 151.034 179.288 151.474 179.288C151.914 179.288 152.324 179.376 152.704 179.552C153.088 179.728 153.42 179.998 153.7 180.362C153.984 180.722 154.206 181.18 154.366 181.736C154.53 182.288 154.612 182.94 154.612 183.692ZM153.4 183.692C153.4 183.044 153.346 182.502 153.238 182.066C153.134 181.63 152.992 181.28 152.812 181.016C152.636 180.748 152.432 180.558 152.2 180.446C151.968 180.334 151.726 180.278 151.474 180.278C151.222 180.278 150.98 180.334 150.748 180.446C150.516 180.558 150.31 180.748 150.13 181.016C149.954 181.28 149.814 181.63 149.71 182.066C149.606 182.502 149.554 183.044 149.554 183.692C149.554 184.34 149.606 184.882 149.71 185.318C149.814 185.754 149.954 186.104 150.13 186.368C150.31 186.632 150.516 186.82 150.748 186.932C150.98 187.044 151.222 187.1 151.474 187.1C151.726 187.1 151.968 187.044 152.2 186.932C152.432 186.82 152.636 186.632 152.812 186.368C152.992 186.104 153.134 185.754 153.238 185.318C153.346 184.882 153.4 184.34 153.4 183.692ZM158.429 187.118C158.705 187.118 158.955 187.074 159.179 186.986C159.403 186.894 159.595 186.77 159.755 186.614C159.915 186.458 160.039 186.272 160.127 186.056C160.215 185.84 160.259 185.606 160.259 185.354C160.259 185.078 160.215 184.832 160.127 184.616C160.043 184.396 159.923 184.21 159.767 184.058C159.615 183.906 159.431 183.79 159.215 183.71C158.999 183.63 158.759 183.59 158.495 183.59C158.219 183.59 157.971 183.638 157.751 183.734C157.531 183.826 157.343 183.952 157.187 184.112C157.031 184.268 156.911 184.452 156.827 184.664C156.743 184.876 156.701 185.098 156.701 185.33C156.701 185.594 156.739 185.836 156.815 186.056C156.891 186.276 157.003 186.464 157.151 186.62C157.299 186.776 157.479 186.898 157.691 186.986C157.907 187.074 158.153 187.118 158.429 187.118ZM157.877 182.588C157.809 182.676 157.741 182.762 157.673 182.846C157.609 182.926 157.547 183.006 157.487 183.086C157.679 182.962 157.891 182.866 158.123 182.798C158.359 182.73 158.613 182.696 158.885 182.696C159.225 182.696 159.549 182.752 159.857 182.864C160.165 182.976 160.435 183.14 160.667 183.356C160.903 183.572 161.089 183.84 161.225 184.16C161.361 184.48 161.429 184.848 161.429 185.264C161.429 185.66 161.357 186.032 161.213 186.38C161.069 186.724 160.865 187.024 160.601 187.28C160.341 187.532 160.029 187.732 159.665 187.88C159.301 188.024 158.897 188.096 158.453 188.096C158.013 188.096 157.615 188.026 157.259 187.886C156.907 187.746 156.605 187.548 156.353 187.292C156.105 187.032 155.913 186.72 155.777 186.356C155.641 185.988 155.573 185.58 155.573 185.132C155.573 184.748 155.655 184.344 155.819 183.92C155.987 183.492 156.251 183.036 156.611 182.552L158.765 179.666C158.825 179.586 158.909 179.52 159.017 179.468C159.125 179.412 159.249 179.384 159.389 179.384H160.433L157.877 182.588ZM163.44 188.096C163.384 188.248 163.296 188.36 163.176 188.432C163.056 188.508 162.932 188.546 162.804 188.546H162.312L165.888 179.57C165.944 179.434 166.024 179.33 166.128 179.258C166.236 179.182 166.36 179.144 166.5 179.144H166.998L163.44 188.096ZM173.299 186.89C173.427 186.89 173.527 186.928 173.599 187.004C173.671 187.076 173.707 187.172 173.707 187.292V188H167.923V187.598C167.923 187.518 167.939 187.434 167.971 187.346C168.003 187.254 168.057 187.172 168.133 187.1L170.857 184.37C171.085 184.142 171.291 183.922 171.475 183.71C171.659 183.498 171.815 183.288 171.943 183.08C172.071 182.868 172.169 182.652 172.237 182.432C172.309 182.212 172.345 181.98 172.345 181.736C172.345 181.496 172.307 181.286 172.231 181.106C172.155 180.922 172.051 180.77 171.919 180.65C171.787 180.53 171.631 180.44 171.451 180.38C171.271 180.32 171.077 180.29 170.869 180.29C170.661 180.29 170.469 180.32 170.293 180.38C170.121 180.44 169.967 180.524 169.831 180.632C169.695 180.74 169.581 180.868 169.489 181.016C169.397 181.164 169.331 181.324 169.291 181.496C169.235 181.648 169.163 181.75 169.075 181.802C168.991 181.854 168.867 181.866 168.703 181.838L168.091 181.73C168.147 181.33 168.257 180.978 168.421 180.674C168.585 180.37 168.791 180.116 169.039 179.912C169.287 179.704 169.571 179.548 169.891 179.444C170.215 179.34 170.563 179.288 170.935 179.288C171.311 179.288 171.657 179.344 171.973 179.456C172.293 179.564 172.569 179.722 172.801 179.93C173.033 180.138 173.215 180.392 173.347 180.692C173.479 180.988 173.545 181.324 173.545 181.7C173.545 182.02 173.497 182.318 173.401 182.594C173.309 182.866 173.181 183.126 173.017 183.374C172.857 183.622 172.669 183.864 172.453 184.1C172.241 184.332 172.015 184.568 171.775 184.808L169.591 187.04C169.759 186.996 169.927 186.96 170.095 186.932C170.267 186.904 170.429 186.89 170.581 186.89H173.299ZM180.476 187.106V188H175.82V187.106H177.644V181.46C177.644 181.28 177.65 181.094 177.662 180.902L176.198 182.144C176.142 182.188 176.086 182.216 176.03 182.228C175.974 182.24 175.92 182.242 175.868 182.234C175.82 182.226 175.776 182.21 175.736 182.186C175.7 182.158 175.67 182.13 175.646 182.102L175.28 181.592L177.86 179.366H178.814V187.106H180.476Z" fill="white"/>
</g>
</g>
<defs>
<filter id="filter0_ddd_62_966" x="0" y="0" width="368" height="250" filterUnits="userSpaceOnUse" color-interpolation-filters="sRGB">
<feFlood flood-opacity="0" result="BackgroundImageFix"/>
<feColorMatrix in="SourceAlpha" type="matrix" values="0 0 0 0 0 0 0 0 0 0 0 0 0 0 0 0 0 0 127 0" result="hardAlpha"/>
<feOffset/>
<feGaussianBlur stdDeviation="0.5"/>
<feColorMatrix type="matrix" values="0 0 0 0 0 0 0 0 0 0 0 0 0 0 0 0 0 0 0.04 0"/>
<feBlend mode="normal" in2="BackgroundImageFix" result="effect1_dropShadow_62_966"/>
<feColorMatrix in="SourceAlpha" type="matrix" values="0 0 0 0 0 0 0 0 0 0 0 0 0 0 0 0 0 0 127 0" result="hardAlpha"/>
<feOffset dy="2"/>
<feGaussianBlur stdDeviation="3"/>
<feColorMatrix type="matrix" values="0 0 0 0 0 0 0 0 0 0 0 0 0 0 0 0 0 0 0.04 0"/>
<feBlend mode="normal" in2="effect1_dropShadow_62_966" result="effect2_dropShadow_62_966"/>
<feColorMatrix in="SourceAlpha" type="matrix" values="0 0 0 0 0 0 0 0 0 0 0 0 0 0 0 0 0 0 127 0" result="hardAlpha"/>
<feOffset dy="16"/>
<feGaussianBlur stdDeviation="12"/>
<feColorMatrix type="matrix" values="0 0 0 0 0 0 0 0 0 0 0 0 0 0 0 0 0 0 0.06 0"/>
<feBlend mode="normal" in2="effect2_dropShadow_62_966" result="effect3_dropShadow_62_966"/>
<feBlend mode="normal" in="SourceGraphic" in2="effect3_dropShadow_62_966" result="shape"/>
</filter>
<linearGradient id="paint0_linear_62_966" x1="184" y1="8" x2="184" y2="210" gradientUnits="userSpaceOnUse">
<stop stop-color="#197BBD"/>
<stop offset="1" stop-color="#3391D0"/>
</linearGradient>
<clipPath id="clip0_62_966">
<rect x="24" y="8" width="320" height="202" rx="26" fill="white"/>
</clipPath>
</defs>
</svg>
