<svg width="140" height="40" viewBox="0 0 140 40" fill="none" xmlns="http://www.w3.org/2000/svg">
<path d="M62.0818 20.1241C62.7182 20.1241 63.2709 20.1911 63.7398 20.3251C64.2199 20.4591 64.5884 20.6489 64.8452 20.8945C65.1131 21.129 65.2471 21.4137 65.2471 21.7486C65.2471 21.9719 65.1801 22.1841 65.0461 22.3851C64.9121 22.5749 64.7168 22.6698 64.46 22.6698C64.2813 22.6698 64.1306 22.6474 64.0078 22.6028C63.8961 22.5469 63.7956 22.48 63.7063 22.4018C63.617 22.3236 63.5109 22.2511 63.3881 22.1841C63.2765 22.1171 63.1034 22.0668 62.8689 22.0334C62.6456 21.9887 62.4782 21.9664 62.3665 21.9664C61.7971 21.9664 61.3114 22.0892 60.9095 22.3348C60.5187 22.5804 60.2173 22.9154 60.0051 23.3397C59.793 23.7528 59.6869 24.2329 59.6869 24.7799C59.6869 25.3159 59.793 25.796 60.0051 26.2202C60.2284 26.6333 60.5299 26.9627 60.9095 27.2083C61.3003 27.454 61.7469 27.5768 62.2493 27.5768C62.5284 27.5768 62.7685 27.56 62.9694 27.5265C63.1704 27.493 63.3379 27.4428 63.4719 27.3758C63.6282 27.2865 63.7677 27.1916 63.8905 27.0911C64.0134 26.9906 64.1976 26.9404 64.4432 26.9404C64.7335 26.9404 64.9568 27.0353 65.1131 27.2251C65.2694 27.4037 65.3476 27.627 65.3476 27.895C65.3476 28.1741 65.1913 28.4309 64.8786 28.6654C64.566 28.8887 64.1529 29.0729 63.6393 29.218C63.1369 29.352 62.5898 29.419 61.9981 29.419C61.116 29.419 60.3512 29.218 59.7037 28.8161C59.0561 28.403 58.5537 27.8447 58.1964 27.1413C57.8503 26.4379 57.6772 25.6508 57.6772 24.7799C57.6772 23.8644 57.8614 23.0605 58.2299 22.3683C58.6095 21.6649 59.1287 21.1178 59.7874 20.727C60.4573 20.3251 61.2221 20.1241 62.0818 20.1241ZM68.9739 28.2299C68.9739 28.5202 68.8735 28.7658 68.6725 28.9668C68.4827 29.1566 68.2426 29.2515 67.9523 29.2515C67.6732 29.2515 67.4387 29.1566 67.2489 28.9668C67.0591 28.7658 66.9642 28.5202 66.9642 28.2299V17.88C66.9642 17.5897 67.0591 17.3496 67.2489 17.1598C67.4499 16.9589 67.6955 16.8584 67.9858 16.8584C68.2761 16.8584 68.5106 16.9589 68.6892 17.1598C68.879 17.3496 68.9739 17.5897 68.9739 17.88V28.2299ZM79.8391 24.7799C79.8391 25.6955 79.6326 26.5049 79.2195 27.2083C78.8175 27.9006 78.2705 28.4421 77.5782 28.8328C76.8972 29.2236 76.1324 29.419 75.2838 29.419C74.4353 29.419 73.6649 29.2236 72.9727 28.8328C72.2916 28.4421 71.7445 27.9006 71.3314 27.2083C70.9295 26.5049 70.7285 25.6955 70.7285 24.7799C70.7285 23.8644 70.9295 23.0605 71.3314 22.3683C71.7445 21.6649 72.2916 21.1178 72.9727 20.727C73.6649 20.3251 74.4353 20.1241 75.2838 20.1241C76.1324 20.1241 76.8972 20.3251 77.5782 20.727C78.2705 21.1178 78.8175 21.6649 79.2195 22.3683C79.6326 23.0605 79.8391 23.8644 79.8391 24.7799ZM77.8294 24.7799C77.8294 24.2105 77.7122 23.7193 77.4777 23.3062C77.2544 22.8819 76.9474 22.5525 76.5566 22.3181C76.177 22.0836 75.7527 21.9664 75.2838 21.9664C74.8149 21.9664 74.385 22.0836 73.9943 22.3181C73.6147 22.5525 73.3076 22.8819 73.0731 23.3062C72.8498 23.7193 72.7382 24.2105 72.7382 24.7799C72.7382 25.3382 72.8498 25.8295 73.0731 26.2537C73.3076 26.6668 73.6147 26.9906 73.9943 27.2251C74.385 27.4595 74.8149 27.5768 75.2838 27.5768C75.7527 27.5768 76.177 27.4595 76.5566 27.2251C76.9474 26.9906 77.2544 26.6668 77.4777 26.2537C77.7122 25.8295 77.8294 25.3382 77.8294 24.7799ZM88.2468 20.2916C88.5371 20.2916 88.7771 20.3921 88.9669 20.5931C89.1567 20.7829 89.2516 21.0229 89.2516 21.3132V25.5671C89.2516 26.7506 88.9223 27.6884 88.2635 28.3807C87.6048 29.0729 86.6558 29.419 85.4164 29.419C84.1771 29.419 83.2281 29.0729 82.5694 28.3807C81.9218 27.6884 81.598 26.7506 81.598 25.5671V21.3132C81.598 21.0229 81.6929 20.7829 81.8827 20.5931C82.0725 20.3921 82.3126 20.2916 82.6029 20.2916C82.8932 20.2916 83.1332 20.3921 83.323 20.5931C83.5128 20.7829 83.6077 21.0229 83.6077 21.3132V25.5671C83.6077 26.2481 83.7584 26.7561 84.0599 27.0911C84.3614 27.4149 84.8135 27.5768 85.4164 27.5768C86.0305 27.5768 86.4883 27.4149 86.7897 27.0911C87.0912 26.7561 87.2419 26.2481 87.2419 25.5671V21.3132C87.2419 21.0229 87.3368 20.7829 87.5266 20.5931C87.7164 20.3921 87.9565 20.2916 88.2468 20.2916ZM98.7628 16.8584C99.0531 16.8584 99.2931 16.9533 99.4829 17.1431C99.6727 17.3329 99.7676 17.5785 99.7676 17.88V28.2299C99.7676 28.5202 99.6727 28.7658 99.4829 28.9668C99.2931 29.1566 99.0531 29.2515 98.7628 29.2515C98.4725 29.2515 98.2324 29.1566 98.0426 28.9668C97.8528 28.7658 97.7579 28.5202 97.7579 28.2299V27.4093L98.1264 27.56C98.1264 27.7052 98.0482 27.8838 97.8919 28.0959C97.7356 28.2969 97.5235 28.4979 97.2555 28.6989C96.9875 28.8998 96.6693 29.0729 96.3009 29.218C95.9436 29.352 95.5528 29.419 95.1286 29.419C94.3582 29.419 93.6604 29.2236 93.0351 28.8328C92.4099 28.4309 91.913 27.8838 91.5446 27.1916C91.1873 26.4882 91.0087 25.6843 91.0087 24.7799C91.0087 23.8644 91.1873 23.0605 91.5446 22.3683C91.913 21.6649 92.4043 21.1178 93.0184 20.727C93.6325 20.3251 94.3135 20.1241 95.0616 20.1241C95.5417 20.1241 95.9827 20.1967 96.3846 20.3419C96.7866 20.487 97.1327 20.6712 97.423 20.8945C97.7244 21.1178 97.9533 21.3467 98.1096 21.5812C98.2771 21.8045 98.3608 21.9943 98.3608 22.1506L97.7579 22.3683V17.88C97.7579 17.5897 97.8528 17.3496 98.0426 17.1598C98.2324 16.9589 98.4725 16.8584 98.7628 16.8584ZM95.3798 27.5768C95.871 27.5768 96.3009 27.454 96.6693 27.2083C97.0378 26.9627 97.3225 26.6278 97.5235 26.2035C97.7356 25.7792 97.8417 25.3047 97.8417 24.7799C97.8417 24.244 97.7356 23.7639 97.5235 23.3397C97.3225 22.9154 97.0378 22.5804 96.6693 22.3348C96.3009 22.0892 95.871 21.9664 95.3798 21.9664C94.8997 21.9664 94.4754 22.0892 94.107 22.3348C93.7385 22.5804 93.4482 22.9154 93.2361 23.3397C93.0351 23.7639 92.9346 24.244 92.9346 24.7799C92.9346 25.3047 93.0351 25.7792 93.2361 26.2035C93.4482 26.6278 93.7385 26.9627 94.107 27.2083C94.4754 27.454 94.8997 27.5768 95.3798 27.5768ZM105.93 20.1241C106.566 20.1241 107.119 20.1911 107.588 20.3251C108.068 20.4591 108.436 20.6489 108.693 20.8945C108.961 21.129 109.095 21.4137 109.095 21.7486C109.095 21.9719 109.028 22.1841 108.894 22.3851C108.76 22.5749 108.564 22.6698 108.308 22.6698C108.129 22.6698 107.978 22.6474 107.855 22.6028C107.744 22.5469 107.643 22.48 107.554 22.4018C107.465 22.3236 107.359 22.2511 107.236 22.1841C107.124 22.1171 106.951 22.0668 106.717 22.0334C106.493 21.9887 106.326 21.9664 106.214 21.9664C105.645 21.9664 105.159 22.0892 104.757 22.3348C104.366 22.5804 104.065 22.9154 103.853 23.3397C103.641 23.7528 103.535 24.2329 103.535 24.7799C103.535 25.3159 103.641 25.796 103.853 26.2202C104.076 26.6333 104.378 26.9627 104.757 27.2083C105.148 27.454 105.595 27.5768 106.097 27.5768C106.376 27.5768 106.616 27.56 106.817 27.5265C107.018 27.493 107.186 27.4428 107.32 27.3758C107.476 27.2865 107.615 27.1916 107.738 27.0911C107.861 26.9906 108.045 26.9404 108.291 26.9404C108.581 26.9404 108.805 27.0353 108.961 27.2251C109.117 27.4037 109.195 27.627 109.195 27.895C109.195 28.1741 109.039 28.4309 108.726 28.6654C108.414 28.8887 108.001 29.0729 107.487 29.218C106.985 29.352 106.438 29.419 105.846 29.419C104.964 29.419 104.199 29.218 103.551 28.8161C102.904 28.403 102.401 27.8447 102.044 27.1413C101.698 26.4379 101.525 25.6508 101.525 24.7799C101.525 23.8644 101.709 23.0605 102.078 22.3683C102.457 21.6649 102.976 21.1178 103.635 20.727C104.305 20.3251 105.07 20.1241 105.93 20.1241ZM117.98 20.1241C118.27 20.1241 118.51 20.219 118.7 20.4088C118.89 20.5987 118.985 20.8443 118.985 21.1457V28.2299C118.985 28.5202 118.89 28.7658 118.7 28.9668C118.51 29.1566 118.27 29.2515 117.98 29.2515C117.69 29.2515 117.45 29.1566 117.26 28.9668C117.07 28.7658 116.975 28.5202 116.975 28.2299V27.4093L117.343 27.56C117.343 27.7052 117.265 27.8838 117.109 28.0959C116.953 28.2969 116.741 28.4979 116.473 28.6989C116.205 28.8998 115.886 29.0729 115.518 29.218C115.161 29.352 114.77 29.419 114.346 29.419C113.575 29.419 112.877 29.2236 112.252 28.8328C111.627 28.4309 111.13 27.8838 110.762 27.1916C110.404 26.4882 110.226 25.6843 110.226 24.7799C110.226 23.8644 110.404 23.0605 110.762 22.3683C111.13 21.6649 111.621 21.1178 112.235 20.727C112.85 20.3251 113.531 20.1241 114.279 20.1241C114.759 20.1241 115.2 20.1967 115.602 20.3419C116.004 20.487 116.35 20.6712 116.64 20.8945C116.942 21.1178 117.17 21.3467 117.327 21.5812C117.494 21.8045 117.578 21.9943 117.578 22.1506L116.975 22.3683V21.1457C116.975 20.8554 117.07 20.6154 117.26 20.4256C117.45 20.2246 117.69 20.1241 117.98 20.1241ZM114.597 27.5768C115.088 27.5768 115.518 27.454 115.886 27.2083C116.255 26.9627 116.54 26.6278 116.741 26.2035C116.953 25.7792 117.059 25.3047 117.059 24.7799C117.059 24.244 116.953 23.7639 116.741 23.3397C116.54 22.9154 116.255 22.5804 115.886 22.3348C115.518 22.0892 115.088 21.9664 114.597 21.9664C114.117 21.9664 113.693 22.0892 113.324 22.3348C112.956 22.5804 112.665 22.9154 112.453 23.3397C112.252 23.7639 112.152 24.244 112.152 24.7799C112.152 25.3047 112.252 25.7792 112.453 26.2035C112.665 26.6278 112.956 26.9627 113.324 27.2083C113.693 27.454 114.117 27.5768 114.597 27.5768ZM120.642 27.8615C120.53 27.7052 120.48 27.5042 120.491 27.2586C120.502 27.0129 120.647 26.8008 120.926 26.6222C121.105 26.5105 121.295 26.4659 121.496 26.4882C121.697 26.4994 121.892 26.5998 122.082 26.7896C122.406 27.1134 122.746 27.3646 123.103 27.5433C123.461 27.7219 123.907 27.8112 124.443 27.8112C124.611 27.8001 124.795 27.7777 124.996 27.7443C125.197 27.6996 125.37 27.6103 125.515 27.4763C125.671 27.3311 125.75 27.1134 125.75 26.8231C125.75 26.5775 125.666 26.3821 125.498 26.237C125.331 26.0918 125.108 25.969 124.828 25.8685C124.56 25.768 124.259 25.6731 123.924 25.5838C123.578 25.4833 123.221 25.3717 122.852 25.2489C122.495 25.1261 122.166 24.9697 121.864 24.7799C121.563 24.579 121.317 24.3166 121.127 23.9928C120.937 23.669 120.843 23.2615 120.843 22.7702C120.843 22.212 120.999 21.7375 121.311 21.3467C121.624 20.9559 122.026 20.6545 122.517 20.4423C123.02 20.2302 123.544 20.1241 124.092 20.1241C124.438 20.1241 124.801 20.1688 125.18 20.2581C125.56 20.3363 125.923 20.4703 126.269 20.6601C126.615 20.8387 126.905 21.0787 127.14 21.3802C127.262 21.5477 127.335 21.7486 127.357 21.9831C127.38 22.2176 127.274 22.4297 127.039 22.6195C126.872 22.7535 126.676 22.8149 126.453 22.8037C126.23 22.7814 126.045 22.7033 125.9 22.5693C125.71 22.3236 125.454 22.1283 125.13 21.9831C124.817 21.838 124.454 21.7654 124.041 21.7654C123.874 21.7654 123.69 21.7877 123.489 21.8324C123.299 21.8659 123.131 21.9496 122.986 22.0836C122.841 22.2064 122.768 22.4074 122.768 22.6865C122.768 22.9433 122.852 23.1499 123.02 23.3062C123.187 23.4513 123.41 23.5741 123.69 23.6746C123.98 23.7639 124.287 23.8532 124.611 23.9426C124.946 24.0319 125.286 24.138 125.632 24.2608C125.978 24.3836 126.297 24.5455 126.587 24.7464C126.877 24.9474 127.112 25.2098 127.29 25.5336C127.469 25.8462 127.558 26.2481 127.558 26.7394C127.558 27.3088 127.391 27.7945 127.056 28.1964C126.721 28.5984 126.302 28.9054 125.8 29.1175C125.297 29.3185 124.784 29.419 124.259 29.419C123.6 29.419 122.942 29.3074 122.283 29.0841C121.624 28.8496 121.077 28.4421 120.642 27.8615ZM133.946 20.1241C134.75 20.1241 135.358 20.2972 135.772 20.6433C136.196 20.9894 136.486 21.4528 136.642 22.0334C136.799 22.6028 136.877 23.2392 136.877 23.9426V28.2299C136.877 28.5202 136.782 28.7658 136.592 28.9668C136.402 29.1566 136.162 29.2515 135.872 29.2515C135.582 29.2515 135.342 29.1566 135.152 28.9668C134.962 28.7658 134.867 28.5202 134.867 28.2299V23.9426C134.867 23.5741 134.823 23.2448 134.733 22.9545C134.644 22.653 134.482 22.413 134.248 22.2343C134.013 22.0557 133.678 21.9664 133.243 21.9664C132.818 21.9664 132.456 22.0557 132.154 22.2343C131.853 22.413 131.624 22.653 131.467 22.9545C131.322 23.2448 131.25 23.5741 131.25 23.9426V28.2299C131.25 28.5202 131.155 28.7658 130.965 28.9668C130.775 29.1566 130.535 29.2515 130.245 29.2515C129.955 29.2515 129.715 29.1566 129.525 28.9668C129.335 28.7658 129.24 28.5202 129.24 28.2299V17.88C129.24 17.5897 129.335 17.3496 129.525 17.1598C129.715 16.9589 129.955 16.8584 130.245 16.8584C130.535 16.8584 130.775 16.9589 130.965 17.1598C131.155 17.3496 131.25 17.5897 131.25 17.88V22.0334L130.999 21.9831C131.099 21.7933 131.239 21.5923 131.417 21.3802C131.596 21.1569 131.814 20.9503 132.07 20.7605C132.327 20.5707 132.612 20.42 132.925 20.3084C133.237 20.1855 133.578 20.1241 133.946 20.1241Z" fill="#0F4264"/>
<path d="M19.7615 28.412C19.7615 33.3187 15.7838 37.2964 10.8771 37.2964C5.97036 37.2964 1.99268 33.3187 1.99268 28.412C1.99268 25.825 3.09838 23.4963 4.86298 21.8726C6.44528 20.4166 8.55735 19.5276 10.8771 19.5276C15.7838 19.5276 19.7615 23.5053 19.7615 28.412Z" fill="#197BBD"/>
<path d="M45.4025 28.412C45.4025 33.3187 41.4248 37.2964 36.5181 37.2964C31.6114 37.2964 27.6337 33.3187 27.6337 28.412C27.6337 27.7852 27.6986 27.1736 27.822 26.5835C28.665 22.554 32.2381 19.5276 36.5181 19.5276C41.4248 19.5276 45.4025 23.5053 45.4025 28.412Z" fill="#197BBD"/>
<path d="M35.425 17.7908C35.425 22.2624 32.1216 25.9624 27.822 26.5835C27.4036 26.644 26.9758 26.6752 26.5406 26.6752C22.2283 26.6752 18.6335 23.6028 17.8259 19.5276C17.7146 18.9659 17.6562 18.3852 17.6562 17.7908C17.6562 17.0102 17.7569 16.2532 17.946 15.5319C18.9453 11.7192 22.4145 8.90643 26.5406 8.90643C31.4474 8.90643 35.425 12.8841 35.425 17.7908Z" fill="#197BBD"/>
<path d="M19.7615 28.412C19.7615 33.3187 15.7838 37.2964 10.8771 37.2964H36.5181C31.6114 37.2964 27.6337 33.3187 27.6337 28.412C27.6337 27.7852 27.6986 27.1736 27.822 26.5835C27.4036 26.644 26.9758 26.6752 26.5406 26.6752C22.2283 26.6752 18.6335 23.6028 17.8259 19.5276H12.0306H10.8771C15.7838 19.5276 19.7615 23.5053 19.7615 28.412Z" fill="#197BBD"/>
<path d="M17.8259 19.5276C17.7146 18.9659 17.6562 18.3852 17.6562 17.7908C17.6562 17.0102 17.7569 16.2532 17.946 15.5319C17.2036 16.8638 14.9811 19.5276 12.0306 19.5276H17.8259Z" fill="#197BBD"/>
<ellipse rx="8.36243" ry="7.80259" transform="matrix(0.854438 -0.502716 0.487435 0.864393 36.6599 15.0863)" fill="#FFC145"/>
<path d="M38.4131 18.9063C37.9685 19.1672 37.5375 19.3474 37.1201 19.447C36.6991 19.5402 36.2468 19.5407 35.7633 19.4484C35.6408 19.4262 35.5319 19.3833 35.4367 19.3195C35.3414 19.2558 35.2684 19.179 35.2176 19.0892C35.1342 18.9416 35.1124 18.7834 35.1523 18.6147C35.195 18.4359 35.2957 18.2998 35.4545 18.2067C35.5752 18.1359 35.705 18.111 35.8438 18.1321C36.1976 18.1894 36.521 18.2005 36.8141 18.1653C37.1135 18.1263 37.4379 18.0044 37.7872 17.7994C38.0222 17.6615 38.2182 17.4995 38.3752 17.3134C38.5285 17.1209 38.6311 16.9282 38.6828 16.7355C38.7309 16.5364 38.7097 16.3566 38.619 16.1962C38.5101 16.0036 38.3604 15.8736 38.1699 15.8059C37.9794 15.7382 37.7412 15.7284 37.4554 15.7765C37.166 15.8181 36.8258 15.9194 36.4347 16.0805C36.0627 16.2304 35.7175 16.3305 35.399 16.3806C35.0769 16.4243 34.7816 16.4181 34.513 16.362C34.2472 16.2958 34.0082 16.1797 33.7959 16.0137C33.58 15.8413 33.394 15.6171 33.238 15.3412C33.0022 14.9241 32.9056 14.5065 32.9483 14.0883C32.9974 13.6664 33.1594 13.2723 33.4343 12.9059C33.7093 12.5394 34.0659 12.2276 34.5042 11.9705C34.917 11.7283 35.3344 11.5688 35.7563 11.4922C36.1809 11.4054 36.5588 11.3931 36.8899 11.4551C37.1576 11.4947 37.3458 11.6107 37.4547 11.8032C37.5345 11.9443 37.553 12.1044 37.5104 12.2832C37.4677 12.4621 37.3733 12.5944 37.2273 12.6801C37.132 12.736 37.0299 12.7574 36.921 12.7444C36.7686 12.7142 36.5849 12.7109 36.3699 12.7345C36.1512 12.7517 35.9321 12.7905 35.7125 12.851C35.4893 12.905 35.2952 12.9805 35.13 13.0774C34.8569 13.2377 34.645 13.409 34.4944 13.5914C34.3501 13.77 34.2648 13.9483 34.2385 14.1261C34.2121 14.3039 34.2443 14.473 34.335 14.6334C34.4439 14.826 34.5886 14.9547 34.7691 15.0197C34.9524 15.0745 35.1706 15.0789 35.4237 15.033C35.6732 14.9806 35.9604 14.8975 36.2852 14.7839C36.7062 14.6308 37.0868 14.5186 37.427 14.4472C37.7736 14.372 38.0857 14.3555 38.3634 14.3977C38.6374 14.4335 38.8873 14.5389 39.1132 14.714C39.3354 14.8827 39.5391 15.1307 39.7241 15.458C39.96 15.8751 40.0488 16.3015 39.9907 16.7372C39.9325 17.173 39.7615 17.581 39.4774 17.9613C39.1997 18.3379 38.845 18.6529 38.4131 18.9063ZM39.3929 19.0236C39.4872 19.1904 39.5081 19.3619 39.4554 19.5381C39.4128 19.7169 39.3089 19.8548 39.1437 19.9517C38.9849 20.0449 38.8189 20.0654 38.6456 20.0132C38.476 19.9675 38.344 19.8612 38.2496 19.6944L33.8741 11.9557C33.7797 11.7888 33.7557 11.6192 33.802 11.4467C33.851 11.2642 33.9581 11.1244 34.1232 11.0275C34.2884 10.9306 34.4544 10.9101 34.6214 10.966C34.791 11.0117 34.923 11.118 35.0173 11.2849L39.3929 19.0236Z" fill="#404040"/>
</svg>
