<svg width="24" height="24" viewBox="0 0 24 24" fill="none" xmlns="http://www.w3.org/2000/svg">
<path d="M12 22C17.5228 22 22 17.5228 22 12C22 6.47715 17.5228 2 12 2C6.47715 2 2 6.47715 2 12C2 17.5228 6.47715 22 12 22Z" fill="#FFC145"/>
<mask id="mask0_298_1369" style="mask-type:alpha" maskUnits="userSpaceOnUse" x="6" y="6" width="12" height="12">
<rect x="6" y="6" width="12" height="12" fill="#D9D9D9"/>
</mask>
<g mask="url(#mask0_298_1369)">
<path d="M12 17.5C11.0667 17.5 10.2083 17.2875 9.425 16.8625C8.64167 16.4375 8 15.8708 7.5 15.1625V16.5H6.5V13.5H9.5V14.5H8.2625C8.6625 15.1 9.18967 15.5833 9.844 15.95C10.498 16.3167 11.2167 16.5 12 16.5C12.625 16.5 13.2105 16.3813 13.7565 16.144C14.3022 15.9063 14.7772 15.5853 15.1815 15.181C15.5855 14.777 15.9063 14.302 16.144 13.756C16.3813 13.2103 16.5 12.625 16.5 12H17.5C17.5 12.7583 17.3563 13.4708 17.069 14.1375C16.7813 14.8042 16.3875 15.3875 15.8875 15.8875C15.3875 16.3875 14.8042 16.7812 14.1375 17.0685C13.4708 17.3562 12.7583 17.5 12 17.5ZM11.55 15.5V14.85C11.1583 14.7583 10.8397 14.5897 10.594 14.344C10.348 14.098 10.1667 13.775 10.05 13.375L10.875 13.05C10.975 13.3917 11.1313 13.6478 11.344 13.8185C11.5563 13.9895 11.8 14.075 12.075 14.075C12.35 14.075 12.5853 14.0103 12.781 13.881C12.977 13.752 13.075 13.55 13.075 13.275C13.075 13.0333 12.973 12.8375 12.769 12.6875C12.5647 12.5375 12.2 12.3667 11.675 12.175C11.1833 12 10.823 11.7917 10.594 11.55C10.3647 11.3083 10.25 10.9917 10.25 10.6C10.25 10.2583 10.3688 9.94783 10.6065 9.6685C10.8438 9.3895 11.1667 9.20833 11.575 9.125V8.5H12.45V9.125C12.75 9.15 13.023 9.27083 13.269 9.4875C13.5147 9.70417 13.6833 9.95833 13.775 10.25L12.975 10.575C12.9083 10.3833 12.8 10.223 12.65 10.094C12.5 9.96467 12.2917 9.9 12.025 9.9C11.7333 9.9 11.5105 9.9625 11.3565 10.0875C11.2022 10.2125 11.125 10.3833 11.125 10.6C11.125 10.8167 11.2208 10.9875 11.4125 11.1125C11.6042 11.2375 11.95 11.3833 12.45 11.55C13.05 11.7667 13.45 12.0208 13.65 12.3125C13.85 12.6042 13.95 12.925 13.95 13.275C13.95 13.5167 13.9083 13.7292 13.825 13.9125C13.7417 14.0958 13.6313 14.252 13.494 14.381C13.3563 14.5103 13.1958 14.6145 13.0125 14.6935C12.8292 14.7728 12.6333 14.8333 12.425 14.875V15.5H11.55ZM6.5 12C6.5 11.2417 6.64383 10.5292 6.9315 9.8625C7.21883 9.19583 7.6125 8.6125 8.1125 8.1125C8.6125 7.6125 9.19583 7.21867 9.8625 6.931C10.5292 6.64367 11.2417 6.5 12 6.5C12.9333 6.5 13.7917 6.7125 14.575 7.1375C15.3583 7.5625 16 8.12917 16.5 8.8375V7.5H17.5V10.5H14.5V9.5H15.7375C15.3375 8.9 14.8103 8.41667 14.156 8.05C13.502 7.68333 12.7833 7.5 12 7.5C11.375 7.5 10.7897 7.61867 10.244 7.856C9.698 8.09367 9.223 8.4145 8.819 8.8185C8.41467 9.22283 8.09367 9.69783 7.856 10.2435C7.61867 10.7895 7.5 11.375 7.5 12H6.5Z" fill="#404040"/>
</g>
</svg>
