<svg width="20" height="20" viewBox="0 0 20 20" fill="none" xmlns="http://www.w3.org/2000/svg">
<path d="M8.50027 15.2504C8.77643 15.2504 9.0003 15.0266 9.0003 14.7504C9.0003 14.4742 8.77643 14.2504 8.50027 14.2504C8.22411 14.2504 8.00024 14.4742 8.00024 14.7504C8.00024 15.0266 8.22411 15.2504 8.50027 15.2504Z" stroke="#404040" stroke-width="0.996054" stroke-linecap="round" stroke-linejoin="round"/>
<path d="M14.0003 15.2504C14.2764 15.2504 14.5003 15.0266 14.5003 14.7504C14.5003 14.4742 14.2764 14.2504 14.0003 14.2504C13.7241 14.2504 13.5002 14.4742 13.5002 14.7504C13.5002 15.0266 13.7241 15.2504 14.0003 15.2504Z" stroke="#404040" stroke-width="0.996054" stroke-linecap="round" stroke-linejoin="round"/>
<path d="M4.49951 4.74951H6.49962L7.83969 11.4449C7.88542 11.6751 8.01066 11.8819 8.19348 12.0291C8.37631 12.1762 8.60508 12.2544 8.83975 12.2499H13.7C13.9347 12.2544 14.1634 12.1762 14.3463 12.0291C14.5291 11.8819 14.6543 11.6751 14.7001 11.4449L15.5001 7.24965H6.99965" stroke="#404040" stroke-width="0.996054" stroke-linecap="round" stroke-linejoin="round"/>
</svg>
