<svg width="20" height="20" viewBox="0 0 20 20" fill="none" xmlns="http://www.w3.org/2000/svg">
<path d="M12 5.49988H4.49951V12.0003H12V5.49988Z" stroke="#404040" stroke-width="1.00006" stroke-linecap="round" stroke-linejoin="round"/>
<path d="M12 8.00037H14.0001L15.5002 9.50046V12.0006H12V8.00037Z" stroke="#404040" stroke-width="1.00006" stroke-linecap="round" stroke-linejoin="round"/>
<path d="M6.74959 14.5C7.43999 14.5 7.99967 13.9404 7.99967 13.25C7.99967 12.5596 7.43999 11.9999 6.74959 11.9999C6.05919 11.9999 5.49951 12.5596 5.49951 13.25C5.49951 13.9404 6.05919 14.5 6.74959 14.5Z" stroke="#404040" stroke-width="1.00006" stroke-linecap="round" stroke-linejoin="round"/>
<path d="M13.2501 14.5C13.9405 14.5 14.5002 13.9404 14.5002 13.25C14.5002 12.5596 13.9405 11.9999 13.2501 11.9999C12.5597 11.9999 12 12.5596 12 13.25C12 13.9404 12.5597 14.5 13.2501 14.5Z" stroke="#404040" stroke-width="1.00006" stroke-linecap="round" stroke-linejoin="round"/>
</svg>
