<svg width="35" height="35" viewBox="0 0 35 35" fill="none" xmlns="http://www.w3.org/2000/svg">
<path d="M17.4999 4.66666C16.7999 4.66666 16.5666 5.13332 16.0999 5.59999L2.56659 27.7667C2.33325 28 2.33325 28.4667 2.33325 28.7C2.33325 29.8667 3.26659 30.3333 3.96659 30.3333H31.0333C31.9666 30.3333 32.6666 29.8667 32.6666 28.7C32.6666 28.2333 32.6666 28.2333 32.4333 27.7667L19.1333 5.59999C18.6666 5.13332 18.1999 4.66666 17.4999 4.66666ZM17.4999 8.16666L25.1999 21H23.3333L19.8333 17.5L17.4999 21L15.1666 17.5L11.6666 21H9.56659L17.4999 8.16666Z" fill="url(#paint0_linear_45_596)"/>
<defs>
<linearGradient id="paint0_linear_45_596" x1="17.4999" y1="4.66666" x2="17.4999" y2="30.3333" gradientUnits="userSpaceOnUse">
<stop stop-color="#7CB4F9"/>
<stop offset="1" stop-color="#6DA2E4"/>
</linearGradient>
</defs>
</svg>
